<?xml version="1.0" encoding="UTF-8"?>
<svg width="229px" height="333px" viewBox="0 0 229 333" version="1.1" xmlns="http://www.w3.org/2000/svg" xmlns:xlink="http://www.w3.org/1999/xlink">
    <!-- Generator: Sketch 54.1 (76490) - https://sketchapp.com -->
    <title>0</title>
    <desc>Created with Sketch.</desc>
    <defs>
        <filter x="-13.6%" y="-39.2%" width="127.2%" height="178.4%" filterUnits="objectBoundingBox" id="filter-1">
            <feGaussianBlur stdDeviation="4.44000006" in="SourceGraphic"></feGaussianBlur>
        </filter>
    </defs>
    <g id="Trials" stroke="none" stroke-width="1" fill="none" fill-rule="evenodd">
        <g id="0" transform="translate(1.000000, 1.000000)" fill-rule="nonzero">
            <ellipse id="Oval" fill="#000000" opacity="0.084362" filter="url(#filter-1)" cx="151" cy="304" rx="49" ry="17"></ellipse>
            <polygon id="Rectangle-Copy-15" fill="#3F3C3C" transform="translate(141.929820, 245.642711) rotate(20.000000) translate(-141.929820, -245.642711) " points="139.292415 183.693252 144.593571 183.408666 144.567223 307.592169 139.266068 307.876755"></polygon>
            <polygon id="Rectangle-Copy-16" fill="#3F3C3C" transform="translate(166.337227, 245.642710) scale(-1, 1) rotate(20.000000) translate(-166.337227, -245.642710) " points="163.699824 183.693252 169.000979 183.408666 168.974632 307.592169 163.673476 307.876755"></polygon>
            <polygon id="Rectangle" fill="#3F3C3C" points="142.548822 170.73913 169.175085 170.73913 169.175085 222.847826 142.548822 222.847826"></polygon>
            <g id="Group-51" transform="translate(0.542088, 0.000000)">
                <path d="M166.134621,181.652272 L191.339893,177.125596 C198.44818,174.10182 204.845244,169.67348 210.20212,164.178048 C220.726378,153.38158 227.235768,138.466397 227.235768,121.991541 C227.235768,105.516685 220.726378,90.6015025 210.20212,79.8050337 C204.845244,74.3096022 198.44818,69.8812624 191.339893,66.8574862 L166.134621,62.3308103 C134.015666,62.3308103 107.978109,89.0418293 107.978109,121.991541 C107.978109,154.941253 134.015666,181.652272 166.134621,181.652272 Z" id="Oval-Copy-7" fill="#0076E2"></path>
                <path d="M132.986589,196.400117 L168.09614,190.081502 C177.997592,185.860728 186.908349,179.679377 194.370181,172.008514 C209.029893,156.938135 218.097113,136.118599 218.097113,113.121976 C218.097113,90.1253522 209.029893,69.305817 194.370181,54.2354377 C186.908349,46.5645741 177.997592,40.3832233 168.09614,36.1624493 L132.986589,29.8438349 C88.2466569,29.8438349 51.9777762,67.1287286 51.9777762,113.121976 C51.9777762,159.115223 88.2466569,196.400117 132.986589,196.400117 Z" id="Oval-Copy-6" fill="#48A7FF"></path>
                <ellipse id="Oval" stroke="#000000" stroke-width="1.11000001" fill="#FFFFFF" cx="100.957912" cy="100.891304" rx="100.957912" ry="100.891304"></ellipse>
                <ellipse id="Oval-Copy-5" stroke="#000000" stroke-width="2" fill="#FFFFFF" cx="100.957912" cy="100.891304" rx="100.957912" ry="100.891304"></ellipse>
                <ellipse id="Oval-Copy-3" stroke="#000000" stroke-width="2" fill="#FFFFFF" cx="102.06734" cy="102" rx="66.5656566" ry="66.5217391"></ellipse>
                <path d="M134.817744,91.7359804 C132.524012,90.0781935 129.691379,89.0988142 126.626033,89.0988142 C118.980959,89.0988142 112.783402,95.19075 112.783402,102.705534 C112.783402,110.220317 118.980959,116.312253 126.626033,116.312253 C129.394221,116.312253 131.972629,115.513554 134.13576,114.137809 C129.20226,126.504381 116.95248,135.26087 102.622054,135.26087 C83.9340954,135.26087 68.7845118,120.369471 68.7845118,102 C68.7845118,83.630529 83.9340954,68.7391304 102.622054,68.7391304 C117.666135,68.7391304 130.417178,78.3894816 134.817744,91.7359804 Z" id="Combined-Shape" fill="#3F3C3C"></path>
            </g>
        </g>
    </g>
</svg>