<?xml version="1.0" encoding="UTF-8"?>
<svg width="717px" height="556px" viewBox="0 0 717 556" version="1.1" xmlns="http://www.w3.org/2000/svg" xmlns:xlink="http://www.w3.org/1999/xlink">
    <!-- Generator: Sketch 53 (72520) - https://sketchapp.com -->
    <title>Group 51</title>
    <desc>Created with Sketch.</desc>
    <defs>
        <rect id="path-1" x="0" y="0" width="241" height="136" rx="4"></rect>
        <rect id="path-3" x="0" y="1" width="241" height="136" rx="4"></rect>
        <rect id="path-5" x="0" y="0" width="136" height="241" rx="4"></rect>
        <rect id="path-7" x="0" y="1" width="136" height="241" rx="4"></rect>
    </defs>
    <g id="Final" stroke="none" stroke-width="1" fill="none" fill-rule="evenodd">
        <g id="Home" transform="translate(-979.000000, -1185.000000)">
            <g id="Group-13" transform="translate(312.000000, 1185.000000)">
                <g id="Group-51" transform="translate(667.000000, 0.000000)">
                    <path d="M401.403749,555.214844 C575.649588,555.214844 716.807499,459.124745 716.807499,284.878906 C716.807499,110.633068 323.334587,0 149.088749,0 C-25.1570897,0 216.807499,182.613536 216.807499,356.859375 C216.807499,531.105214 227.157911,555.214844 401.403749,555.214844 Z" id="Oval" fill="#E7F4FD"></path>
                    <g id="Group-36" transform="translate(0.000000, 35.000000)">
                        <g id="Group-29" transform="translate(112.000000, 123.000000)">
                            <rect id="Rectangle-55" stroke="#064A8A" stroke-width="2" fill="#FFFFFF" x="1" y="1" width="438" height="298" rx="4"></rect>
                            <polyline id="Rectangle-64" stroke="#28567F" stroke-width="4" transform="translate(244.349304, 85.439569) rotate(45.000000) translate(-244.349304, -85.439569) " points="252.472381 93.5476775 236.226227 93.5476775 236.226227 77.3314613"></polyline>
                            <polyline id="Rectangle-64-Copy" stroke="#28567F" stroke-width="4" transform="translate(341.826227, 186.790921) scale(-1, 1) rotate(45.000000) translate(-341.826227, -186.790921) " points="349.949304 194.899029 333.70315 194.899029 333.70315 178.682813"></polyline>
                            <path d="M334.4,175.324324 L322.215385,195.594595" id="Line-3" stroke="#28567F" stroke-width="2" stroke-linecap="square"></path>
                            <polygon id="Rectangle-65" fill="#28567F" points="257.230769 79.3783784 403.446154 79.3783784 403.446154 92.8918919 257.230769 92.8918919"></polygon>
                            <polygon id="Rectangle-65-Copy" fill="#47EBC6" points="257.230769 109.108108 295.138462 109.108108 295.138462 122.621622 257.230769 122.621622"></polygon>
                            <polygon id="Rectangle-65-Copy-3" fill="#0487FF" points="303.261538 109.108108 377.723077 109.108108 377.723077 122.621622 303.261538 122.621622"></polygon>
                            <polygon id="Rectangle-65-Copy-2" fill="#28567F" points="257.230769 144.243243 342.523077 144.243243 342.523077 157.756757 257.230769 157.756757"></polygon>
                            <path d="M4,1 L436,1 C438.209139,1 440,2.790861 440,5 L440,30.7297297 L0,30.7297297 L0,5 C-2.705415e-16,2.790861 1.790861,1 4,1 Z" id="Rectangle-56" fill="#064A8A"></path>
                            <path d="M172.584615,10.4594595 L268.769231,10.4594595 C269.8738,10.4594595 270.769231,11.35489 270.769231,12.4594595 L270.769231,19.2702703 C270.769231,20.3748398 269.8738,21.2702703 268.769231,21.2702703 L172.584615,21.2702703 C171.480046,21.2702703 170.584615,20.3748398 170.584615,19.2702703 L170.584615,12.4594595 C170.584615,11.35489 171.480046,10.4594595 172.584615,10.4594595 Z" id="Rectangle-57" fill="#F9FCFF"></path>
                            <ellipse id="Oval-18" fill="#FFFFFF" cx="419.692308" cy="15.8648649" rx="6.47692308" ry="6.45945946"></ellipse>
                            <ellipse id="Oval-17" fill="#FFFFFF" cx="14.8923077" cy="15.8648649" rx="4.06153846" ry="4.05405405"></ellipse>
                            <ellipse id="Oval-17-Copy" fill="#FFFFFF" cx="31.1384615" cy="15.8648649" rx="4.06153846" ry="4.05405405"></ellipse>
                            <ellipse id="Oval-17-Copy-2" fill="#04D0A6" cx="47.3846154" cy="15.8648649" rx="4.06153846" ry="4.05405405"></ellipse>
                        </g>
                        <g id="Group-30" transform="translate(333.000000, 343.000000)">
                            <mask id="mask-2" fill="white">
                                <use xlink:href="#path-1"></use>
                            </mask>
                            <rect stroke="#064A8A" stroke-width="2" x="1" y="1" width="239" height="134" rx="4"></rect>
                            <polygon id="Rectangle-63" fill="#EAF0F5" mask="url(#mask-2)" points="2.29213483 89.8965085 73.4268697 109.681481 125.238764 72.3590656 188.679186 109.681481 238.309283 81.6138266 240.185393 179.787361 2.29213483 179.787361"></polygon>
                            <ellipse id="Oval-21-Copy" fill-opacity="0.0651890851" fill="#2D4152" mask="url(#mask-2)" cx="199.02809" cy="95.2574257" rx="24.3707865" ry="24.2376238"></ellipse>
                            <ellipse id="Oval-21" fill="#0487FF" mask="url(#mask-2)" cx="199.705056" cy="95.9306931" rx="11.508427" ry="11.4455446"></ellipse>
                            <ellipse id="Oval-21-Copy-2" fill="#F9FCFF" mask="url(#mask-2)" cx="199.705056" cy="95.9306931" rx="3.38483146" ry="3.36633663"></ellipse>
                            <g id="Group-31" mask="url(#mask-2)">
                                <g transform="translate(32.494382, 26.584158)">
                                    <path d="M20.620999,44.4356436 C26.3153306,44.4356436 31.4705804,42.1749032 35.2022472,38.5197805 L24.0578321,24.2376238 L35.2022472,9.95546699 C31.4705804,6.30034433 26.3153306,4.03960396 20.620999,4.03960396 C9.23233572,4.03960396 0,13.0825654 0,24.2376238 C0,35.3926821 9.23233572,44.4356436 20.620999,44.4356436 Z" id="Oval-19" fill="#0487FF"></path>
                                    <ellipse id="Oval-20" fill="#28567F" cx="45.3567416" cy="23.5643564" rx="3.38483146" ry="3.36633663"></ellipse>
                                    <ellipse id="Oval-20-Copy" fill="#28567F" cx="60.25" cy="23.5643564" rx="3.38483146" ry="3.36633663"></ellipse>
                                    <ellipse id="Oval-20-Copy-2" fill="#28567F" cx="75.1432584" cy="23.5643564" rx="3.38483146" ry="3.36633663"></ellipse>
                                    <ellipse id="Oval-20-Copy-3" fill="#28567F" cx="91.3904494" cy="23.5643564" rx="3.38483146" ry="3.36633663"></ellipse>
                                    <ellipse id="Oval-20-Copy-5" fill="#28567F" cx="110.345506" cy="7.40594059" rx="3.38483146" ry="3.36633663"></ellipse>
                                    <ellipse id="Oval-20-Copy-6" fill="#28567F" cx="130.654494" cy="7.40594059" rx="3.38483146" ry="3.36633663"></ellipse>
                                    <ellipse id="Oval-20-Copy-7" fill="#47EBC6" cx="156.379213" cy="7.40594059" rx="7.44662921" ry="7.40594059"></ellipse>
                                </g>
                            </g>
                            <mask id="mask-4" fill="white">
                                <use xlink:href="#path-3"></use>
                            </mask>
                            <rect stroke="#0063BE" x="0.5" y="1.5" width="240" height="135" rx="4"></rect>
                        </g>
                        <g id="Group-28" transform="translate(144.000000, 28.000000)">
                            <g id="Rectangle-61-Copy">
                                <mask id="mask-6" fill="white">
                                    <use xlink:href="#path-5"></use>
                                </mask>
                                <use id="Mask" fill="#FFFFFF" xlink:href="#path-5"></use>
                                <path d="M69.0011384,201.382022 L69.0011384,201.382022 C74.0352138,201.382022 78.1161382,205.462947 78.1161382,210.497022 L78.1161382,211.222079 C78.1161382,216.256154 74.0352138,220.337079 69.0011384,220.337079 L69.0011384,220.337079 C63.967063,220.337079 59.8861386,216.256154 59.8861386,211.222079 L59.8861386,210.497022 C59.8861386,205.462947 63.967063,201.382022 69.0011384,201.382022 Z" id="Rectangle-58" fill="#47EBC6" mask="url(#mask-6)"></path>
                                <polygon fill="#EAF0F5" mask="url(#mask-6)" points="126.574257 28.0786517 238.336634 28.0786517 238.336634 126.91573 126.574257 126.91573"></polygon>
                                <polygon id="Rectangle-61-Copy-2" fill="#EAF0F5" mask="url(#mask-6)" points="-102.336634 28.0786517 9.42574257 28.0786517 9.42574257 126.91573 -102.336634 126.91573"></polygon>
                                <mask id="mask-8" fill="white">
                                    <use xlink:href="#path-7"></use>
                                </mask>
                                <use id="Mask-Copy" stroke="#064A8A" stroke-width="2" xlink:href="#path-7"></use>
                            </g>
                            <polygon id="Rectangle-60" fill="#DCE1E5" points="12.1188119 136.393258 123.881188 136.393258 123.881188 148.578652 12.1188119 148.578652"></polygon>
                            <polygon id="Rectangle-61" fill="#EAF0F5" points="12.1188119 28.0786517 123.881188 28.0786517 123.881188 126.91573 12.1188119 126.91573"></polygon>
                            <polygon id="Rectangle-61-Copy-3" fill="#DDE4EA" points="12.1188119 103.953087 58.7846535 89.3308791 97.2299907 53.1559498 123.881188 80.2857104 123.881188 126.91573 12.1188119 126.91573"></polygon>
                            <polygon id="Rectangle-60-Copy" fill="#DCE1E5" points="12.1188119 153.994382 94.2574257 153.994382 94.2574257 166.179775 12.1188119 166.179775"></polygon>
                            <polygon id="Rectangle-60-Copy-2" fill="#DCE1E5" points="12.1188119 171.595506 123.881188 171.595506 123.881188 177.011236 12.1188119 177.011236"></polygon>
                            <polygon id="Rectangle-60-Copy-3" fill="#DCE1E5" points="12.1188119 182.426966 123.881188 182.426966 123.881188 187.842697 12.1188119 187.842697"></polygon>
                            <polygon id="Rectangle-59" fill="#064A8A" points="89.776841 2 85.2967203 14.4928047 68.2967203 14.4928047 51.2967203 14.4928047 46 2"></polygon>
                        </g>
                        <g id="Group-35" transform="translate(448.000000, 0.000000)">
                            <g id="Group-33" transform="translate(10.856204, 0.000000)">
                                <path d="M52.2277105,92.8533778 L102.255052,71.9669421 L177.910842,71.9669421 C192.270245,71.9669421 203.910842,60.3263456 203.910842,45.9669421 L203.910842,27 C203.910842,12.6405965 192.270245,1 177.910842,1 L27,1 C12.6405965,1 1,12.6405965 1,27 L1,45.9669421 C1,60.3263456 12.6405965,71.9669421 27,71.9669421 L52.2277105,71.9669421 L52.2277105,92.8533778 Z" id="Rectangle-67" stroke="#064A8A" stroke-width="2" fill="#FFFFFF"></path>
                                <polygon id="Rectangle-60" fill="#0487FF" points="35.2826615 21.6198347 172.342231 21.6198347 172.342231 33.7809917 35.2826615 33.7809917"></polygon>
                                <polygon id="Rectangle-60-Copy-4" fill="#47EBC6" points="35.2826615 40.5371901 124.846341 40.5371901 124.846341 52.6983471 35.2826615 52.6983471"></polygon>
                            </g>
                            <g id="Group-34" transform="translate(0.000000, 83.966942)">
                                <ellipse id="Oval-22" stroke="#28567F" stroke-width="2" fill="#F9FCFF" cx="31.2115852" cy="36.4834711" rx="24.426458" ry="24.322314"></ellipse>
                                <polyline id="Path-29" stroke="#0063BE" stroke-width="2" points="31.1012606 12.1375697 31.1012606 4.34019932 37.2863319 4.34019932"></polyline>
                                <ellipse id="Oval-24" fill="#47EBC6" cx="39.0710763" cy="4.05371901" rx="4.07107633" ry="4.05371901"></ellipse>
                                <rect id="Rectangle-68" stroke="#28567F" stroke-width="2" fill="#F9FCFF" x="1" y="25.322314" width="60.4231704" height="22.322314" rx="11.161157"></rect>
                                <ellipse id="Oval-23" fill="#0487FF" cx="18.9983562" cy="36.4834711" rx="5.42810177" ry="5.40495868"></ellipse>
                                <ellipse id="Oval-23-Copy" fill="#0487FF" cx="43.4248142" cy="36.4834711" rx="5.42810177" ry="5.40495868"></ellipse>
                                <path d="M28.4975343,52.6983471 L33.9256361,52.6983471" id="Line-5" stroke="#0063BE" stroke-width="2" stroke-linecap="square"></path>
                            </g>
                        </g>
                        <g id="Group-32" transform="translate(0.000000, 325.000000)" stroke="#064A8A" stroke-width="2">
                            <path d="M4,26.6666667 C2.34314575,26.6666667 1,28.0098124 1,29.6666667 L1,86.5087719 C1,88.1656262 2.34314575,89.5087719 4,89.5087719 L60.8376963,89.5087719 C62.4945506,89.5087719 63.8376963,88.1656262 63.8376963,86.5087719 L63.8376963,29.6666667 C63.8376963,28.0098124 62.4945506,26.6666667 60.8376963,26.6666667 L4,26.6666667 Z" id="Rectangle-66" fill="#FFFFFF"></path>
                            <path d="M125.570681,110.421053 C123.913826,110.421053 122.570681,111.764198 122.570681,113.421053 L122.570681,150 C122.570681,151.656854 123.913826,153 125.570681,153 L162.146597,153 C163.803451,153 165.146597,151.656854 165.146597,150 L165.146597,113.421053 C165.146597,111.764198 163.803451,110.421053 162.146597,110.421053 L125.570681,110.421053 Z" id="Rectangle-66-Copy" fill="#FFFFFF"></path>
                            <path d="M103.958115,26.6666667 C102.301261,26.6666667 100.958115,28.0098124 100.958115,29.6666667 L100.958115,66.245614 C100.958115,67.9024683 102.301261,69.245614 103.958115,69.245614 L140.534031,69.245614 C142.190886,69.245614 143.534031,67.9024683 143.534031,66.245614 L143.534031,29.6666667 C143.534031,28.0098124 142.190886,26.6666667 140.534031,26.6666667 L103.958115,26.6666667 Z" id="Rectangle-66-Copy-2" fill="#47EBC6"></path>
                            <path d="M64.8376963,58.0877193 L100.319368,58.0877193" id="Path-27"></path>
                            <polyline id="Path-27-Copy" points="144.534031 51.7950589 162.274867 51.7950589 162.274867 14.7580695 179.436125 14.7580695"></polyline>
                            <polyline id="Path-27-Copy-2" points="144.534031 51.7950589 162.274867 51.7950589 241.191693 52.2858073"></polyline>
                            <polyline id="Path-28" points="83.4558451 58.3805853 83.4558451 137.534277 122.082656 137.534277"></polyline>
                            <path d="M180.95288,1 C179.296025,1 177.95288,2.34314575 177.95288,4 L177.95288,18.9649123 C177.95288,20.6217665 179.296025,21.9649123 180.95288,21.9649123 L195.91623,21.9649123 C197.573085,21.9649123 198.91623,20.6217665 198.91623,18.9649123 L198.91623,4 C198.91623,2.34314575 197.573085,1 195.91623,1 L180.95288,1 Z" id="Rectangle-66-Copy-3" fill="#FFFFFF"></path>
                            <path d="M239.036649,42.5263158 C237.379795,42.5263158 236.036649,43.8694615 236.036649,45.5263158 L236.036649,60.4912281 C236.036649,62.1480823 237.379795,63.4912281 239.036649,63.4912281 L254,63.4912281 C255.656854,63.4912281 257,62.1480823 257,60.4912281 L257,45.5263158 C257,43.8694615 255.656854,42.5263158 254,42.5263158 L239.036649,42.5263158 Z" id="Rectangle-66-Copy-4" fill="#0487FF"></path>
                        </g>
                    </g>
                </g>
            </g>
        </g>
    </g>
</svg>