<?xml version="1.0" encoding="UTF-8"?>
<svg width="168px" height="56px" viewBox="0 0 168 56" version="1.1" xmlns="http://www.w3.org/2000/svg" xmlns:xlink="http://www.w3.org/1999/xlink">
    <!-- Generator: Sketch 54.1 (76490) - https://sketchapp.com -->
    <title>Group</title>
    <desc>Created with Sketch.</desc>
    <defs>
        <polygon id="path-1" points="0 0.0556619709 167.5296 0.0556619709 167.5296 55.6619718 0 55.6619718"></polygon>
    </defs>
    <g id="Final" stroke="none" stroke-width="1" fill="none" fill-rule="evenodd">
        <g id="Project_Detail_wireframe" transform="translate(-975.000000, -661.000000)">
            <g id="Group-16" transform="translate(180.000000, 200.000000)">
                <g id="Group-7">
                    <g id="Group-15">
                        <g id="Group-34" transform="translate(795.000000, 425.000000)">
                            <g id="Group" transform="translate(0.000000, 36.000000)">
                                <g id="Group-3">
                                    <mask id="mask-2" fill="white">
                                        <use xlink:href="#path-1"></use>
                                    </mask>
                                    <g id="Clip-2"></g>
                                    <path d="M154.1876,0 L13.349,0 C12.8352,0 12.3284,0 11.816,0.00278309859 C11.3876,0.00556619718 10.962,0.013915493 10.5294,0.0208732394 C9.597,0.0431380282 8.6548,0.100191549 7.7238,0.265785915 C6.7872,0.429988732 5.9164,0.708298592 5.0624,1.13828732 C4.2252,1.56549296 3.4594,2.11932958 2.7972,2.77892394 C2.1266,3.43851831 1.5722,4.20247887 1.1466,5.03462535 C0.7112,5.88207887 0.4354,6.75179718 0.2716,7.68274366 C0.1036,8.60534085 0.0448,9.53767887 0.021,10.4686254 C0.0084,10.895831 0.007,11.3244282 0,11.7502423 C0,12.2553746 0,12.760507 0,13.2698141 L0,42.3935493 C0,42.907031 0,43.4093803 0,43.9159042 C0.007,44.3472845 0.0084,44.7661408 0.021,45.1975211 C0.0448,46.1298592 0.1036,47.0621972 0.2716,47.9834028 C0.4354,48.9157408 0.7112,49.7896338 1.1466,50.6343042 C1.5722,51.4622761 2.1266,52.2262366 2.7972,52.8802648 C3.4594,53.5454254 4.2252,54.0978704 5.0624,54.5209014 C5.9164,54.9550648 6.7872,55.2305915 7.7238,55.398969 C8.6548,55.5645634 9.597,55.6188338 10.5294,55.6438817 C10.962,55.6536225 11.3876,55.6591887 11.816,55.6591887 C12.3284,55.6619718 12.8352,55.6619718 13.349,55.6619718 L154.1876,55.6619718 C154.693,55.6619718 155.2026,55.6619718 155.7052,55.6591887 C156.1336,55.6591887 156.5704,55.6536225 156.9974,55.6438817 C157.9354,55.6188338 158.8762,55.5645634 159.7974,55.398969 C160.7354,55.2305915 161.6062,54.9550648 162.4686,54.5209014 C163.3044,54.0978704 164.0702,53.5454254 164.7338,52.8802648 C165.3988,52.2262366 165.9546,51.4622761 166.3858,50.6343042 C166.8156,49.7896338 167.0956,48.9157408 167.2524,47.9834028 C167.426,47.0621972 167.4792,46.1298592 167.5142,45.1975211 C167.5184,44.7661408 167.5184,44.3472845 167.5184,43.9159042 C167.5296,43.4093803 167.5296,42.907031 167.5296,42.3935493 L167.5296,13.2698141 C167.5296,12.760507 167.5296,12.2553746 167.5184,11.7502423 C167.5184,11.3244282 167.5184,10.895831 167.5142,10.4686254 C167.4792,9.53767887 167.426,8.60534085 167.2524,7.68274366 C167.0956,6.75179718 166.8156,5.88207887 166.3858,5.03462535 C165.9546,4.20247887 165.3988,3.43851831 164.7338,2.77892394 C164.0702,2.11932958 163.3044,1.56549296 162.4686,1.13828732 C161.6062,0.708298592 160.7354,0.429988732 159.7974,0.265785915 C158.8762,0.100191549 157.9354,0.0431380282 156.9974,0.0208732394 C156.5704,0.013915493 156.1336,0.00556619718 155.7052,0.00278309859 C155.2026,0 154.693,0 154.1876,0" id="Fill-1" fill="#A9AAA9" mask="url(#mask-2)"></path>
                                </g>
                                <path d="M11.823,54.4443662 C11.396,54.4443662 10.9802,54.4388 10.5574,54.4290592 C9.7734,54.4081859 8.8452,54.3636563 7.9394,54.2022366 C7.0854,54.0491662 6.3266,53.7986873 5.621,53.4396676 C4.8902,53.0722986 4.2336,52.5963887 3.6652,52.0258535 C3.0856,51.459493 2.6082,50.811031 2.2358,50.0818592 C1.8732,49.3791268 1.6254,48.624907 1.4756,47.776062 C1.3048,46.8395493 1.2614,45.8905127 1.2432,45.166907 C1.2334,44.8732901 1.2222,43.8964225 1.2222,43.8964225 L1.2222,11.7502423 C1.2222,11.7502423 1.2348,10.7886817 1.2432,10.5061972 C1.2614,9.77702535 1.3048,8.82798873 1.4742,7.9012169 C1.624,7.04680563 1.8718,6.29258592 2.2358,5.58846197 C2.6068,4.85789859 3.0842,4.20526197 3.6568,3.64307606 C4.235,3.06697465 4.8944,2.58967324 5.6196,2.21952113 C6.3392,1.85632676 7.0966,1.60863099 7.9338,1.46251831 C8.8774,1.29553239 9.8322,1.25239437 10.5602,1.23430423 L11.823,1.21760563 L155.6982,1.21760563 L156.9764,1.23569577 C157.6946,1.25239437 158.6508,1.29553239 159.579,1.46112676 C160.4218,1.60863099 161.1862,1.85771831 161.9184,2.22369577 C162.6366,2.58967324 163.2932,3.06697465 163.8658,3.63750986 C164.4412,4.20247887 164.9186,4.85929014 165.2994,5.59124507 C165.6606,6.30232676 165.9056,7.05654648 166.0498,7.88590986 C166.2108,8.76397746 166.2612,9.66570141 166.292,10.5117634 C166.2962,10.9055718 166.2962,11.3299944 166.2962,11.7502423 C166.3088,12.2720732 166.3088,12.7688563 166.3088,13.2698141 L166.3088,42.3935493 C166.3088,42.8986817 166.3088,43.3926817 166.2962,43.8894648 C166.2962,44.3417183 166.2962,44.7564 166.2906,45.1836056 C166.2612,46.0032282 166.2108,46.9035606 166.0512,47.7621465 C165.9056,48.6151662 165.6606,49.3693859 165.2952,50.0860338 C164.9186,50.8096394 164.4384,51.4622761 163.8742,52.0147211 C163.2946,52.5963887 162.638,53.070907 161.9156,53.4368845 C161.1876,53.8042535 160.447,54.0477746 159.579,54.2022366 C158.683,54.3636563 157.7548,54.4081859 156.9624,54.4290592 C156.5536,54.4388 156.1224,54.4443662 155.7052,54.4443662 L154.1876,54.4471493 L11.823,54.4443662" id="Fill-4" fill="#000000"></path>
                                <path d="M34.6766,28.2498423 C34.6416,24.4216901 37.8294,22.5584056 37.9764,22.470738 C36.1704,19.8546254 33.3704,19.4969972 32.3876,19.4691662 C30.037,19.222862 27.7578,20.8676732 26.5594,20.8676732 C25.3386,20.8676732 23.4948,19.4928225 21.5082,19.534569 C18.9518,19.5735324 16.5578,21.0457915 15.246,23.3307155 C12.5384,27.9896225 14.5586,34.8374366 17.1514,38.602969 C18.4492,40.4481634 19.9654,42.5090479 21.9506,42.4352958 C23.8924,42.3559775 24.6176,41.2037746 26.9612,41.2037746 C29.2838,41.2037746 29.9642,42.4352958 31.9886,42.3893746 C34.0718,42.3559775 35.385,40.535831 36.638,38.673938 C38.1374,36.5601746 38.7394,34.4770254 38.7632,34.3712676 C38.7142,34.354569 34.7158,32.8391718 34.6766,28.2498423" id="Fill-5" fill="#FFFFFE"></path>
                                <path d="M30.8518,16.9922085 C31.8962,15.693893 32.6102,13.9280169 32.4128,12.1343099 C30.9008,12.2011042 29.0108,13.1737972 27.9216,14.4442817 C26.9584,15.5630873 26.0988,17.3971493 26.32,19.1212789 C28.0182,19.2479099 29.7626,18.2696507 30.8518,16.9922085" id="Fill-6" fill="#FFFFFE"></path>
                                <path d="M53.2826,35.611138 L58.5354,35.611138 L55.9454,28.031369 L55.874,28.031369 L53.2826,35.611138 Z M59.2228,37.7666479 L52.5966,37.7666479 L51.0048,42.4366873 L48.1978,42.4366873 L54.4754,25.1564282 L57.3916,25.1564282 L63.6678,42.4366873 L60.8132,42.4366873 L59.2228,37.7666479 L59.2228,37.7666479 Z" id="Fill-7" fill="#FFFFFE"></path>
                                <path d="M74.55,36.1385352 C74.55,33.5878254 73.2228,31.9110085 71.1998,31.9110085 C69.2118,31.9110085 67.8748,33.6226141 67.8748,36.1385352 C67.8748,38.6767211 69.2118,40.3771944 71.1998,40.3771944 C73.2228,40.3771944 74.55,38.7115099 74.55,36.1385352 Z M77.224,36.1385352 C77.224,40.0529634 75.1156,42.5688845 71.9334,42.5688845 C70.1274,42.5688845 68.6938,41.7659606 67.9462,40.3646704 L67.886,40.3646704 L67.886,46.6043775 L65.2834,46.6043775 L65.2834,29.8376 L67.802,29.8376 L67.802,31.9332732 L67.8496,31.9332732 C68.5734,30.5820789 70.1162,29.7067944 71.8858,29.7067944 C75.103,29.7067944 77.224,32.2338479 77.224,36.1385352 L77.224,36.1385352 Z" id="Fill-8" fill="#FFFFFE"></path>
                                <path d="M88.4996,36.1385352 C88.4996,33.5878254 87.1738,31.9110085 85.1508,31.9110085 C83.1628,31.9110085 81.8258,33.6226141 81.8258,36.1385352 C81.8258,38.6767211 83.1628,40.3771944 85.1508,40.3771944 C87.1738,40.3771944 88.4996,38.7115099 88.4996,36.1385352 Z M91.1736,36.1385352 C91.1736,40.0529634 89.0666,42.5688845 85.8844,42.5688845 C84.0784,42.5688845 82.6448,41.7659606 81.8972,40.3646704 L81.837,40.3646704 L81.837,46.6043775 L79.2344,46.6043775 L79.2344,29.8376 L81.753,29.8376 L81.753,31.9332732 L81.8006,31.9332732 C82.5244,30.5820789 84.0658,29.7067944 85.8368,29.7067944 C89.054,29.7067944 91.1736,32.2338479 91.1736,36.1385352 L91.1736,36.1385352 Z" id="Fill-9" fill="#FFFFFE"></path>
                                <path d="M100.3954,37.6219268 C100.5872,39.3363155 102.263,40.4606873 104.5506,40.4606873 C106.7444,40.4606873 108.3222,39.3363155 108.3222,37.7903042 C108.3222,36.4488507 107.3702,35.6459268 105.1176,35.0962648 L102.8636,34.5563437 C99.6716,33.7896 98.189,32.3062085 98.189,29.8974366 C98.189,26.916738 100.8042,24.8683775 104.5156,24.8683775 C108.1892,24.8683775 110.7078,26.916738 110.7918,29.8974366 L108.1654,29.8974366 C108.0086,28.173307 106.5736,27.1324282 104.4792,27.1324282 C102.382,27.1324282 100.9484,28.185831 100.9484,29.7179268 C100.9484,30.939707 101.864,31.659138 104.1054,32.2101915 L106.0206,32.6763606 C109.5878,33.5154648 111.0704,34.9390197 111.0704,37.4674648 C111.0704,40.7000338 108.479,42.724738 104.3588,42.724738 C100.5032,42.724738 97.8992,40.7473465 97.7312,37.6219268 L100.3954,37.6219268" id="Fill-10" fill="#FFFFFE"></path>
                                <path d="M116.6844,26.8569014 L116.6844,29.8376 L119.0952,29.8376 L119.0952,31.8859606 L116.6844,31.8859606 L116.6844,38.8311831 C116.6844,39.9110254 117.1674,40.4133746 118.2272,40.4133746 C118.4918,40.4133746 118.9146,40.3771944 119.0826,40.353538 L119.0826,42.3893746 C118.7942,42.4617352 118.216,42.5090479 117.6378,42.5090479 C115.0716,42.5090479 114.0706,41.5502704 114.0706,39.1081014 L114.0706,31.8859606 L112.2282,31.8859606 L112.2282,29.8376 L114.0706,29.8376 L114.0706,26.8569014 L116.6844,26.8569014" id="Fill-11" fill="#FFFFFE"></path>
                                <path d="M129.864,36.1385352 C129.864,33.4194479 128.611,31.8136 126.5026,31.8136 C124.3942,31.8136 123.1426,33.4305803 123.1426,36.1385352 C123.1426,38.8687549 124.3942,40.4606873 126.5026,40.4606873 C128.611,40.4606873 129.864,38.8687549 129.864,36.1385352 Z M120.491,36.1385352 C120.491,32.1740113 122.8402,29.683138 126.5026,29.683138 C130.1776,29.683138 132.5156,32.1740113 132.5156,36.1385352 C132.5156,40.1128 130.1902,42.5925408 126.5026,42.5925408 C122.8164,42.5925408 120.491,40.1128 120.491,36.1385352 L120.491,36.1385352 Z" id="Fill-12" fill="#FFFFFE"></path>
                                <path d="M134.6604,29.8376 L137.1426,29.8376 L137.1426,31.9819775 L137.2028,31.9819775 C137.6004,30.557031 138.7568,29.7067944 140.2506,29.7067944 C140.6244,29.7067944 140.9366,29.7554986 141.1424,29.8028113 L141.1424,32.2213239 C140.9366,32.137831 140.4788,32.0654704 139.9734,32.0654704 C138.299,32.0654704 137.263,33.1926254 137.263,34.9640676 L137.263,42.4366873 L134.6604,42.4366873 L134.6604,29.8376" id="Fill-13" fill="#FFFFFE"></path>
                                <path d="M144.3428,34.9765915 L150.6792,34.9765915 C150.619,33.0479042 149.3786,31.7788113 147.5712,31.7788113 C145.7764,31.7788113 144.4758,33.0729521 144.3428,34.9765915 Z M153.1376,38.7365577 C152.7876,41.0242648 150.5476,42.5925408 147.6804,42.5925408 C143.9928,42.5925408 141.7038,40.1378479 141.7038,36.1983718 C141.7038,32.2463718 144.0054,29.683138 147.5712,29.683138 C151.0782,29.683138 153.2832,32.0779944 153.2832,35.8977972 L153.2832,36.7842141 L144.3302,36.7842141 L144.3302,36.9400676 C144.3302,39.0955775 145.6924,40.508 147.7406,40.508 C149.1854,40.508 150.3194,39.8261408 150.668,38.7365577 L153.1376,38.7365577 L153.1376,38.7365577 Z" id="Fill-14" fill="#FFFFFE"></path>
                                <path d="M51.2372,19.2785239 L52.8122,19.2785239 C54.5594,19.2785239 55.566,18.1972901 55.566,16.2922592 C55.566,14.4164507 54.5426,13.322693 52.8122,13.322693 L51.2372,13.322693 L51.2372,19.2785239 Z M52.9564,12.1496169 C55.4344,12.1496169 56.8876,13.662231 56.8876,16.2755606 C56.8876,18.9278535 55.4456,20.4529915 52.9564,20.4529915 L49.9394,20.4529915 L49.9394,12.1496169 L52.9564,12.1496169 L52.9564,12.1496169 Z" id="Fill-15" fill="#FFFFFE"></path>
                                <path d="M63.0196,17.3164394 C63.0196,15.9582873 62.405,15.1651042 61.3284,15.1651042 C60.2462,15.1651042 59.6386,15.9582873 59.6386,17.3164394 C59.6386,18.6857239 60.2462,19.4747324 61.3284,19.4747324 C62.405,19.4747324 63.0196,18.6801577 63.0196,17.3164394 Z M58.3534,17.3164394 C58.3534,15.2973014 59.4874,14.0657803 61.3284,14.0657803 C63.1638,14.0657803 64.2992,15.2973014 64.2992,17.3164394 C64.2992,19.3481014 63.1694,20.5740563 61.3284,20.5740563 C59.4818,20.5740563 58.3534,19.3481014 58.3534,17.3164394 L58.3534,17.3164394 Z" id="Fill-16" fill="#FFFFFE"></path>
                                <polyline id="Fill-17" fill="#FFFFFE" points="72.2022 20.4529915 70.9114 20.4529915 69.6094 15.8372225 69.51 15.8372225 68.2136 20.4529915 66.9354 20.4529915 65.1966 14.1868451 66.4594 14.1868451 67.5878 18.9682085 67.6816 18.9682085 68.978 14.1868451 70.1708 14.1868451 71.4672 18.9682085 71.5652 18.9682085 72.6894 14.1868451 73.934 14.1868451 72.2022 20.4529915"></polyline>
                                <path d="M75.3956,14.1868451 L76.5926,14.1868451 L76.5926,15.1818028 L76.685,15.1818028 C76.9916,14.4860282 77.6174,14.0657803 78.5666,14.0657803 C79.9736,14.0657803 80.7492,14.9048845 80.7492,16.3966254 L80.7492,20.4529915 L79.5046,20.4529915 L79.5046,16.7069408 C79.5046,15.6994592 79.065,15.1985014 78.1438,15.1985014 C77.224,15.1985014 76.6388,15.8093915 76.6388,16.7862592 L76.6388,20.4529915 L75.3956,20.4529915 L75.3956,14.1868451" id="Fill-18" fill="#FFFFFE"></path>
                                <polygon id="Fill-19" fill="#FFFFFE" points="82.7316 20.4529915 83.9762 20.4529915 83.9762 11.7405014 82.7316 11.7405014"></polygon>
                                <path d="M90.3714,17.3164394 C90.3714,15.9582873 89.7568,15.1651042 88.6802,15.1651042 C87.598,15.1651042 86.9904,15.9582873 86.9904,17.3164394 C86.9904,18.6857239 87.598,19.4747324 88.6802,19.4747324 C89.7568,19.4747324 90.3714,18.6801577 90.3714,17.3164394 Z M85.7052,17.3164394 C85.7052,15.2973014 86.8392,14.0657803 88.6802,14.0657803 C90.5156,14.0657803 91.651,15.2973014 91.651,17.3164394 C91.651,19.3481014 90.5212,20.5740563 88.6802,20.5740563 C86.8336,20.5740563 85.7052,19.3481014 85.7052,17.3164394 L85.7052,17.3164394 Z" id="Fill-20" fill="#FFFFFE"></path>
                                <path d="M97.013,18.1458028 L97.013,17.6211887 L95.4744,17.7185972 C94.6064,17.7770423 94.213,18.0706592 94.213,18.6231042 C94.213,19.1866817 94.7044,19.5150873 95.3806,19.5150873 C96.3186,19.5150873 97.013,18.9222873 97.013,18.1458028 Z M92.9614,18.6801577 C92.9614,17.5530028 93.8056,16.9017577 95.3064,16.8099155 L97.013,16.712507 L97.013,16.1711944 C97.013,15.5102085 96.5734,15.1358817 95.7236,15.1358817 C95.0292,15.1358817 94.5476,15.3891437 94.409,15.8316563 L93.205,15.8316563 C93.3324,14.7559887 94.3502,14.0657803 95.781,14.0657803 C97.3616,14.0657803 98.252,14.847831 98.252,16.1711944 L98.252,20.4529915 L97.055,20.4529915 L97.055,19.5721408 L96.9556,19.5721408 C96.5804,20.1997296 95.8916,20.5559662 95.0628,20.5559662 C93.8476,20.5559662 92.9614,19.8254028 92.9614,18.6801577 L92.9614,18.6801577 Z" id="Fill-21" fill="#FFFFFE"></path>
                                <path d="M101.1724,17.3164394 C101.1724,18.645369 101.8024,19.4455099 102.8566,19.4455099 C103.9052,19.4455099 104.5534,18.6342366 104.5534,17.3220056 C104.5534,16.0167324 103.8982,15.1929352 102.8566,15.1929352 C101.8094,15.1929352 101.1724,15.9986423 101.1724,17.3164394 Z M99.8872,17.3164394 C99.8872,15.3362648 100.912,14.0824789 102.5038,14.0824789 C103.3676,14.0824789 104.0956,14.4915944 104.4372,15.1818028 L104.531,15.1818028 L104.531,11.7405014 L105.7742,11.7405014 L105.7742,20.4529915 L104.5828,20.4529915 L104.5828,19.4622085 L104.4834,19.4622085 C104.1082,20.1482423 103.3718,20.5559662 102.5038,20.5559662 C100.9008,20.5559662 99.8872,19.3021803 99.8872,17.3164394 L99.8872,17.3164394 Z" id="Fill-22" fill="#FFFFFE"></path>
                                <path d="M115.5882,17.3164394 C115.5882,15.9582873 114.9736,15.1651042 113.897,15.1651042 C112.8148,15.1651042 112.2072,15.9582873 112.2072,17.3164394 C112.2072,18.6857239 112.8148,19.4747324 113.897,19.4747324 C114.9736,19.4747324 115.5882,18.6801577 115.5882,17.3164394 Z M110.922,17.3164394 C110.922,15.2973014 112.0574,14.0657803 113.897,14.0657803 C115.7324,14.0657803 116.8678,15.2973014 116.8678,17.3164394 C116.8678,19.3481014 115.738,20.5740563 113.897,20.5740563 C112.0518,20.5740563 110.922,19.3481014 110.922,17.3164394 L110.922,17.3164394 Z" id="Fill-23" fill="#FFFFFE"></path>
                                <path d="M118.538,14.1868451 L119.735,14.1868451 L119.735,15.1818028 L119.8274,15.1818028 C120.134,14.4860282 120.7598,14.0657803 121.709,14.0657803 C123.116,14.0657803 123.8916,14.9048845 123.8916,16.3966254 L123.8916,20.4529915 L122.647,20.4529915 L122.647,16.7069408 C122.647,15.6994592 122.2074,15.1985014 121.2862,15.1985014 C120.3664,15.1985014 119.7812,15.8093915 119.7812,16.7862592 L119.7812,20.4529915 L118.538,20.4529915 L118.538,14.1868451" id="Fill-24" fill="#FFFFFE"></path>
                                <path d="M130.921,12.6269183 L130.921,14.2146761 L132.2874,14.2146761 L132.2874,15.2569465 L130.921,15.2569465 L130.921,18.4783831 C130.921,19.1351944 131.194,19.4232451 131.8128,19.4232451 C132.0046,19.4232451 132.1138,19.4107211 132.2874,19.3940225 L132.2874,20.423769 C132.0844,20.4585577 131.852,20.4877803 131.6098,20.4877803 C130.2266,20.4877803 129.6764,20.0035211 129.6764,18.7956563 L129.6764,15.2569465 L128.6754,15.2569465 L128.6754,14.2146761 L129.6764,14.2146761 L129.6764,12.6269183 L130.921,12.6269183" id="Fill-25" fill="#FFFFFE"></path>
                                <path d="M133.987,11.7405014 L135.2204,11.7405014 L135.2204,15.1929352 L135.3184,15.1929352 C135.6236,14.4915944 136.29,14.0713465 137.2406,14.0713465 C138.5832,14.0713465 139.412,14.9174085 139.412,16.4077577 L139.412,20.4529915 L138.166,20.4529915 L138.166,16.712507 C138.166,15.7119831 137.697,15.2040676 136.8178,15.2040676 C135.7986,15.2040676 135.2302,15.8441803 135.2302,16.7932169 L135.2302,20.4529915 L133.987,20.4529915 L133.987,11.7405014" id="Fill-26" fill="#FFFFFE"></path>
                                <path d="M142.289,16.7417296 L145.474,16.7417296 C145.4446,15.7579042 144.8426,15.1177915 143.9214,15.1177915 C143.0016,15.1177915 142.359,15.7634704 142.289,16.7417296 Z M146.6654,18.7608676 C146.3826,19.8838479 145.3746,20.5740563 143.934,20.5740563 C142.128,20.5740563 141.022,19.3425352 141.022,17.3387042 C141.022,15.3362648 142.1518,14.0657803 143.9284,14.0657803 C145.6826,14.0657803 146.741,15.2569465 146.741,17.2245972 L146.741,17.6559775 L142.289,17.6559775 L142.289,17.7255549 C142.331,18.8234873 142.9736,19.5206535 143.9676,19.5206535 C144.7222,19.5206535 145.2374,19.2493014 145.4684,18.7608676 L146.6654,18.7608676 L146.6654,18.7608676 Z" id="Fill-27" fill="#FFFFFE"></path>
                            </g>
                        </g>
                    </g>
                </g>
            </g>
        </g>
    </g>
</svg>