<?xml version="1.0" encoding="UTF-8"?>
<svg width="64px" height="46px" viewBox="0 0 64 46" version="1.1" xmlns="http://www.w3.org/2000/svg" xmlns:xlink="http://www.w3.org/1999/xlink">
    <!-- Generator: Sketch 54.1 (76490) - https://sketchapp.com -->
    <title>Combined Shape</title>
    <desc>Created with Sketch.</desc>
    <g id="Final" stroke="none" stroke-width="1" fill="none" fill-rule="evenodd">
        <g id="Award_page_seletion" transform="translate(-349.000000, -646.000000)" fill="#FFD841">
            <g id="Group-5" transform="translate(348.000000, 646.000000)">
                <path d="M35.801061,41.424534 C40.4313255,40.5486317 42.9048895,43.9354782 43.1007958,45.4678515 C38.9471871,47.109576 35.801061,44.7251146 35.801061,41.424534 Z M44.2809549,31.3406593 C46.7491725,34.0749445 45.6479963,37.6500123 42.7760346,38.4175824 C41.5452646,36.2240186 41.8955882,32.5471378 44.2809549,31.3406593 Z M43.270557,39.6128819 C47.3612164,37.5418266 50.75439,39.6488981 51.5888594,41.4069084 C47.5078769,44.1406866 44.1461215,42.4755537 43.270557,39.6128819 Z M48.3632362,27.4652015 C51.1611206,29.1521767 52.0373326,32.8264079 49.020836,34.7106227 C47.8344615,33.7552514 45.9062409,29.9402752 48.3632362,27.4652015 Z M49.8912467,35.720134 C52.0381262,33.5462464 55.9358283,32.8276891 58.3793103,35.0686113 C56.0824322,38.6061426 51.6084988,38.4378275 49.8912467,35.720134 Z M51.203759,22.5787546 C54.4847829,23.4008108 56.1832087,26.6170074 54.0129909,29.3186813 C51.2673059,28.1330422 49.9802898,24.4865199 51.203759,22.5787546 Z M55.1538462,29.9183361 C55.8634305,28.1074439 59.5992122,25.0152846 62.9628647,26.8449771 C61.3948444,31.5500067 57.2256342,31.7768475 55.1538462,29.9183361 Z M52.5165275,17.025931 C55.310017,16.8716238 58.5974329,19.0717777 57.1968059,22.7472527 C53.3167784,22.0088449 52.0957382,18.4802046 52.5165275,17.025931 Z M58.3793103,23.0343075 C58.8421819,19.7999141 61.8967585,17.1945723 64.9999992,17.7732052 C65.002126,23.0041807 60.4997623,24.1452626 58.3793103,23.0343075 Z M51.928382,11.4345515 C55.2517892,10.3752541 58.268206,12.0696692 58.0261463,15.450377 C56.1458925,15.7774524 52.2743059,14.5576481 51.928382,11.4345515 Z M64.1802514,8.59340659 C65.2119019,11.6143278 63.6823491,15.9068332 59.4438975,15.4711009 C59.0964006,12.7285505 60.7209269,8.95470951 64.1802514,8.59340659 Z M49.8912467,6.1661655 C53.7691239,3.4836596 56.76073,6.24444923 57.0212202,8.28240278 C54.1785016,9.46549316 50.8247537,8.34583959 49.8912467,6.1661655 Z M60.8020551,0 C62.6415585,2.70828031 62.56431,6.93882756 58.2883266,7.91941392 C57.2959613,6.16893558 57.2187128,1.51405964 60.8020551,0 Z M26.8186629,33.8681319 C28.886157,34.1014195 31.0869568,37.0128197 30.4153985,40.2710623 C27.1020001,40.2710623 25.3492832,37.2059493 26.8186629,33.8681319 Z M22.8992042,45.4678515 C23.0951105,43.9354782 25.5686745,40.5486317 30.198939,41.424534 C30.198939,44.7251146 27.0528129,47.109576 22.8992042,45.4678515 Z M21.7190451,31.3406593 C24.1044118,32.5471378 24.4547354,36.2240186 23.2239654,38.4175824 C20.3520037,37.6500123 19.2508275,34.0749445 21.7190451,31.3406593 Z M14.4111406,41.4069084 C15.24561,39.6488981 18.6387836,37.5418266 22.729443,39.6128819 C21.8538785,42.4755537 18.4921231,44.1406866 14.4111406,41.4069084 Z M17.6367638,27.4652015 C20.0937591,29.9402752 18.1655385,33.7552514 16.979164,34.7106227 C13.9626674,32.8264079 14.8388794,29.1521767 17.6367638,27.4652015 Z M7.62068966,35.0686113 C10.0641717,32.8276891 13.9618738,33.5462464 16.1087533,35.720134 C14.3915012,38.4378275 9.9175678,38.6061426 7.62068966,35.0686113 Z M14.796241,22.5787546 C16.0197102,24.4865199 14.7326941,28.1330422 11.9870091,29.3186813 C9.81679127,26.6170074 11.5152171,23.4008108 14.796241,22.5787546 Z M3.03713528,26.8449771 C6.40078777,25.0152846 10.1365695,28.1074439 10.8461538,29.9183361 C8.77436583,31.7768475 4.60515559,31.5500067 3.03713528,26.8449771 Z M13.4834725,17.025931 C13.9042618,18.4802046 12.6832216,22.0089695 8.80319414,22.7472527 C7.40256711,19.0717777 10.689983,16.8716238 13.4834725,17.025931 Z M1.00000075,17.7732052 C4.10324148,17.1945723 7.15781814,19.7999141 7.62068966,23.0343075 C5.50023774,24.1452626 0.997874046,23.0041807 1.00000075,17.7732052 Z M7.97385366,15.450377 C7.73179398,12.0696692 10.7482108,10.3752541 14.071618,11.4345515 C13.7256941,14.5576481 9.85410755,15.7774524 7.97385366,15.450377 Z M1.81974864,8.59340659 C5.27907312,8.95470951 6.90359939,12.7285505 6.55610253,15.4711009 C2.31765092,15.9068332 0.78809809,11.6143278 1.81974864,8.59340659 Z M8.97877984,8.28240278 C9.23927,6.24444923 12.2308761,3.4836596 16.1087533,6.1661655 C15.1752463,8.34583959 11.8214984,9.46549316 8.97877984,8.28240278 Z M5.19794495,0 C8.78128722,1.51393715 8.70403871,6.16881308 7.71167339,7.91941392 C3.43569004,6.93882756 3.35844153,2.70828031 5.19794495,0 Z M39.1813371,33.8681319 C40.6507168,37.2059493 38.8979999,40.2710623 35.5846015,40.2710623 C34.9130432,37.0128197 37.113843,34.1014195 39.1813371,33.8681319 Z" id="Combined-Shape"></path>
            </g>
        </g>
    </g>
</svg>