<svg width="40" height="40" viewBox="0 0 40 40" fill="none" xmlns="http://www.w3.org/2000/svg">
<circle cx="20" cy="20" r="20" fill="#0C1D3D"/>
<path d="M13.0648 19.2915L17.5077 23.6893L28.0134 13.2968C28.1722 13.1373 28.3613 13.0105 28.5699 12.9237C28.7785 12.8369 29.0024 12.7918 29.2287 12.791C29.455 12.7902 29.6792 12.8338 29.8884 12.9192C30.0976 13.0045 30.2876 13.13 30.4476 13.2884C30.6075 13.4468 30.7341 13.6349 30.8202 13.842C30.9062 14.049 30.95 14.2709 30.9489 14.4947C30.9479 14.7186 30.902 14.94 30.814 15.1462C30.726 15.3525 30.5976 15.5395 30.4362 15.6964L18.722 27.2873C18.5631 27.4456 18.3742 27.5713 18.166 27.6571C17.9579 27.7428 17.7346 27.787 17.5091 27.787C17.2836 27.787 17.0603 27.7428 16.8522 27.6571C16.644 27.5713 16.4551 27.4456 16.2962 27.2873L10.6391 21.6911C10.3174 21.3729 10.1367 20.9413 10.1367 20.4913C10.1367 20.0413 10.3174 19.6097 10.6391 19.2915C10.7984 19.1339 10.9875 19.0089 11.1956 18.9237C11.4037 18.8384 11.6267 18.7945 11.852 18.7945C12.0772 18.7945 12.3002 18.8384 12.5084 18.9237C12.7165 19.0089 12.9055 19.1339 13.0648 19.2915Z" fill="white"/>
</svg>
