<svg width="32" height="32" viewBox="0 0 32 32" fill="none" xmlns="http://www.w3.org/2000/svg">
<circle cx="16" cy="16" r="16" fill="#D1E9FF"/>
<path d="M10.4519 15.4328L14.0061 18.9511L22.4107 10.637C22.5378 10.5094 22.6891 10.408 22.8559 10.3386C23.0228 10.2691 23.2019 10.2331 23.383 10.2324C23.564 10.2318 23.7434 10.2666 23.9107 10.3349C24.0781 10.4032 24.2301 10.5036 24.3581 10.6303C24.486 10.757 24.5873 10.9076 24.6561 11.0732C24.725 11.2388 24.76 11.4163 24.7591 11.5954C24.7583 11.7745 24.7216 11.9516 24.6512 12.1166C24.5808 12.2816 24.4781 12.4312 24.349 12.5567L14.9776 21.8294C14.8505 21.9561 14.6994 22.0567 14.5328 22.1253C14.3663 22.1939 14.1877 22.2292 14.0073 22.2292C13.8269 22.2292 13.6483 22.1939 13.4817 22.1253C13.3152 22.0567 13.1641 21.9561 13.037 21.8294L8.51128 17.3525C8.25394 17.0979 8.10938 16.7526 8.10938 16.3926C8.10938 16.0326 8.25394 15.6874 8.51128 15.4328C8.6387 15.3068 8.78997 15.2068 8.95645 15.1386C9.12293 15.0703 9.30137 15.0352 9.48157 15.0352C9.66176 15.0352 9.8402 15.0703 10.0067 15.1386C10.1732 15.2068 10.3244 15.3068 10.4519 15.4328Z" fill="#6BB8FF"/>
</svg>
