<svg width="221" height="64" viewBox="0 0 221 64" fill="none" xmlns="http://www.w3.org/2000/svg">
<path d="M60.5707 1.85135C62.6255 1.7094 64.5975 1.70446 66.4941 1.8241L66.5571 0.826084C64.6151 0.703582 62.599 0.708848 60.5018 0.853731L60.5707 1.85135Z" fill="black"/>
<path d="M50.8683 3.42537C52.8892 2.92326 54.8389 2.53961 56.7221 2.26608L56.5783 1.27647C54.6607 1.55501 52.6785 1.94522 50.6272 2.45488L50.8683 3.42537Z" fill="black"/>
<path d="M70.4462 2.2668C72.4365 2.59029 74.3413 3.05668 76.1704 3.64956L76.4787 2.69828C74.6019 2.08995 72.6477 1.6115 70.6066 1.27975L70.4462 2.2668Z" fill="black"/>
<path d="M41.4714 6.43716C43.402 5.68868 45.2747 5.03722 47.0923 4.47747L46.798 3.52176C44.9564 4.08888 43.0614 4.74822 41.1099 5.50478L41.4714 6.43716Z" fill="black"/>
<path d="M79.8354 5.04496C81.6511 5.84161 83.392 6.76577 85.069 7.79905L85.5936 6.94768C83.88 5.89191 82.0983 4.94578 80.2372 4.12923L79.8354 5.04496Z" fill="black"/>
<path d="M32.3961 10.4713C34.2482 9.54916 36.0522 8.70779 37.8103 7.9436L37.4117 7.02649C35.6369 7.79794 33.8171 8.64669 31.9504 9.57612L32.3961 10.4713Z" fill="black"/>
<path d="M88.3449 10.0083C89.9293 11.1701 91.458 12.4271 92.9419 13.7615L93.6106 13.018C92.1051 11.6641 90.5505 10.3856 88.9362 9.20187L88.3449 10.0083Z" fill="black"/>
<path d="M23.5976 15.2566C25.4083 14.1931 27.1773 13.2001 28.9062 12.2748L28.4344 11.3931C26.6932 12.3249 24.9126 13.3245 23.0911 14.3944L23.5976 15.2566Z" fill="black"/>
<path d="M95.8155 16.4908C97.209 17.8833 98.5659 19.3376 99.8964 20.8367L100.644 20.1729C99.303 18.6616 97.9323 17.1925 96.5223 15.7834L95.8155 16.4908Z" fill="black"/>
<path d="M15.1894 20.5093C16.9288 19.3608 18.633 18.2722 20.3029 17.2414L19.7777 16.3905C18.0987 17.4268 16.3859 18.521 14.6384 19.6748L15.1894 20.5093Z" fill="black"/>
<path d="M7.09875 26.1031C8.72133 24.933 10.3155 23.8111 11.882 22.7362L11.3162 21.9117C9.74306 22.9911 8.14249 24.1175 6.51383 25.292L7.09875 26.1031Z" fill="black"/>
<path d="M102.499 23.8592C103.772 25.378 105.025 26.9284 106.269 28.4946L107.052 27.8729C105.805 26.3022 104.546 24.7446 103.266 23.2168L102.499 23.8592Z" fill="black"/>
<path d="M1.82701 30C2.49441 29.4949 3.15724 28.9977 3.81553 28.5081L3.21878 27.7057C2.38554 28.3253 1.54515 28.9573 0.69751 29.6016L1.00036 30H1.82701Z" fill="black"/>
<path d="M220 30H219.219C219.372 29.8724 219.526 29.7444 219.679 29.616L220 30Z" fill="black"/>
<path d="M217.891 32.3966C218.694 31.7374 219.504 31.0663 220.321 30.3831L219.679 29.616C218.865 30.2973 218.057 30.9664 217.256 31.6236L217.891 32.3966Z" fill="white"/>
<path d="M108.735 31.6311C109.163 32.1791 109.591 32.7279 110.018 33.2768L110.022 33.2809C110.822 34.3085 111.623 35.336 112.425 36.3575L113.212 35.7399C112.41 34.7188 111.611 33.6932 110.81 32.6658L110.799 32.6515C110.374 32.1065 109.949 31.561 109.523 31.0155L108.735 31.6311Z" fill="white"/>
<path d="M210.078 38.5976C211.597 37.4346 213.142 36.226 214.713 34.9704L214.089 34.1893C212.523 35.4406 210.984 36.645 209.47 37.8036L210.078 38.5976Z" fill="white"/>
<path d="M114.91 39.4885C116.172 41.0579 117.447 42.6047 118.743 44.1113L119.501 43.4591C118.214 41.9632 116.947 40.4253 115.69 38.8618L114.91 39.4885Z" fill="white"/>
<path d="M201.938 44.5689C203.565 43.4304 205.223 42.2353 206.914 40.9818L206.319 40.1784C204.634 41.4268 202.984 42.6166 201.365 43.7496L201.938 44.5689Z" fill="white"/>
<path d="M193.625 50.0719C195.289 49.0368 196.99 47.9371 198.727 46.7708L198.17 45.9405C196.441 47.1007 194.751 48.1941 193.097 49.2228L193.625 50.0719Z" fill="white"/>
<path d="M121.413 47.1154C122.787 48.6079 124.193 50.0457 125.64 51.4096L126.326 50.6819C124.899 49.3368 123.51 47.9161 122.148 46.4379L121.413 47.1154Z" fill="white"/>
<path d="M184.998 55.0394C186.691 54.1477 188.425 53.1827 190.201 52.1415L189.695 51.2788C187.931 52.3128 186.211 53.2703 184.532 54.1547L184.998 55.0394Z" fill="white"/>
<path d="M128.65 54.08C130.211 55.3779 131.825 56.5833 133.504 57.6744L134.048 56.8359C132.406 55.7686 130.824 54.587 129.289 53.3111L128.65 54.08Z" fill="white"/>
<path d="M175.932 59.2877C177.695 58.5711 179.507 57.7665 181.37 56.8695L180.936 55.9685C179.091 56.857 177.298 57.653 175.556 58.3613L175.932 59.2877Z" fill="white"/>
<path d="M136.983 59.7146C138.763 60.6467 140.617 61.4486 142.556 62.0987L142.874 61.1505C140.988 60.5183 139.183 59.7377 137.447 58.8287L136.983 59.7146Z" fill="white"/>
<path d="M166.379 62.4522C168.237 61.987 170.156 61.4124 172.138 60.7214L171.809 59.7772C169.853 60.4588 167.963 61.0247 166.136 61.4822L166.379 62.4522Z" fill="white"/>
<path d="M146.445 63.167C148.359 63.5803 150.353 63.8491 152.436 63.9564L152.488 62.9577C150.458 62.8531 148.517 62.5914 146.656 62.1895L146.445 63.167Z" fill="white"/>
<path d="M156.46 63.9636C158.397 63.8739 160.408 63.6506 162.497 63.2824L162.323 62.2975C160.274 62.6587 158.306 62.8771 156.414 62.9647L156.46 63.9636Z" fill="white"/>
</svg>
