<svg width="221" height="64" viewBox="0 0 221 64" fill="none" xmlns="http://www.w3.org/2000/svg">
<path d="M60.5705 62.6579C62.6253 62.7999 64.5974 62.8048 66.4939 62.6852L66.5569 63.6832C64.615 63.8057 62.5988 63.8004 60.5016 63.6556L60.5705 62.6579Z" fill="white"/>
<path d="M50.8682 61.0839C52.8891 61.586 54.8388 61.9697 56.7219 62.2432L56.5782 63.2328C54.6605 62.9543 52.6783 62.5641 50.627 62.0544L50.8682 61.0839Z" fill="white"/>
<path d="M70.446 62.2425C72.4363 61.919 74.3411 61.4526 76.1702 60.8597L76.4786 61.811C74.6018 62.4193 72.6475 62.8978 70.6065 63.2295L70.446 62.2425Z" fill="white"/>
<path d="M41.4712 58.0721C43.4018 58.8206 45.2745 59.4721 47.0922 60.0318L46.7979 60.9875C44.9563 60.4204 43.0612 59.7611 41.1098 59.0045L41.4712 58.0721Z" fill="white"/>
<path d="M79.8353 59.4643C81.651 58.6677 83.3918 57.7435 85.0688 56.7102L85.5934 57.5616C83.8799 58.6174 82.0981 59.5635 80.2371 60.3801L79.8353 59.4643Z" fill="white"/>
<path d="M32.396 54.038C34.248 54.9601 36.0521 55.8015 37.8102 56.5657L37.4115 57.4828C35.6367 56.7113 33.8169 55.8626 31.9503 54.9332L32.396 54.038Z" fill="white"/>
<path d="M88.3447 54.501C89.9291 53.3392 91.4579 52.0822 92.9417 50.7478L93.6104 51.4913C92.1049 52.8452 90.5504 54.1237 88.936 55.3074L88.3447 54.501Z" fill="white"/>
<path d="M23.5974 49.2527C25.4081 50.3162 27.1772 51.3092 28.9061 52.2345L28.4342 53.1162C26.6931 52.1844 24.9125 51.1848 23.091 50.1149L23.5974 49.2527Z" fill="white"/>
<path d="M95.8153 48.0185C97.2088 46.626 98.5658 45.1717 99.8962 43.6726L100.644 44.3364C99.3029 45.8477 97.9322 47.3168 96.5222 48.7259L95.8153 48.0185Z" fill="white"/>
<path d="M15.1892 44C16.9286 45.1485 18.6328 46.2371 20.3028 47.2679L19.7775 48.1188C18.0985 47.0825 16.3858 45.9883 14.6382 44.8345L15.1892 44Z" fill="white"/>
<path d="M7.09859 38.4062C8.72117 39.5763 10.3153 40.6982 11.8819 41.773L11.3161 42.5976C9.7429 41.5182 8.14234 40.3918 6.51367 39.2173L7.09859 38.4062Z" fill="white"/>
<path d="M102.499 40.6501C103.772 39.1313 105.025 37.5809 106.269 36.0146L107.052 36.6364C105.805 38.207 104.546 39.7647 103.266 41.2924L102.499 40.6501Z" fill="white"/>
<path d="M2.47712 35C2.92527 35.3373 3.37135 35.671 3.81537 36.0012L3.21862 36.8036C2.42521 36.2136 1.62531 35.6124 0.818848 35H2.47712Z" fill="white"/>
<path d="M220.17 34C219.404 33.3603 218.644 32.7313 217.891 32.1127L217.256 32.8857C217.704 33.2534 218.154 33.6248 218.607 34H220.17Z" fill="black"/>
<path d="M110.013 31.2399L110.019 31.2321C110.82 30.2033 111.622 29.1744 112.425 28.1518L113.212 28.7694C112.411 29.7893 111.612 30.8139 110.813 31.8401L110.81 31.8434L110.809 31.8444C110.381 32.3938 109.953 32.9438 109.523 33.4938L108.735 32.8782C109.161 32.3327 109.587 31.7863 110.013 31.2399Z" fill="black"/>
<path d="M210.078 25.9117C211.597 27.0747 213.142 28.2833 214.713 29.5388L214.089 30.32C212.523 29.0687 210.984 27.8643 209.47 26.7057L210.078 25.9117Z" fill="black"/>
<path d="M114.91 25.0208C116.172 23.4514 117.447 21.9046 118.743 20.398L119.501 21.0502C118.214 22.5461 116.947 24.084 115.69 25.6475L114.91 25.0208Z" fill="black"/>
<path d="M201.938 19.9404C203.565 21.0789 205.223 22.274 206.914 23.5275L206.319 24.3309C204.634 23.0825 202.984 21.8927 201.365 20.7597L201.938 19.9404Z" fill="black"/>
<path d="M193.625 14.4374C195.289 15.4725 196.99 16.5721 198.727 17.7385L198.17 18.5688C196.441 17.4086 194.751 16.3152 193.097 15.2865L193.625 14.4374Z" fill="black"/>
<path d="M121.413 17.3939C122.787 15.9014 124.193 14.4636 125.64 13.0997L126.326 13.8274C124.899 15.1725 123.51 16.5932 122.148 18.0714L121.413 17.3939Z" fill="black"/>
<path d="M184.998 9.4699C186.691 10.3616 188.425 11.3266 190.201 12.3677L189.695 13.2304C187.931 12.1965 186.211 11.239 184.532 10.3546L184.998 9.4699Z" fill="black"/>
<path d="M128.65 10.4293C130.211 9.13135 131.825 7.92601 133.504 6.83488L134.048 7.67337C132.406 8.74074 130.824 9.92225 129.289 11.1982L128.65 10.4293Z" fill="black"/>
<path d="M175.932 5.22155C177.695 5.93816 179.507 6.74279 181.37 7.63975L180.936 8.54077C179.091 7.65232 177.298 6.85625 175.556 6.14796L175.932 5.22155Z" fill="black"/>
<path d="M136.983 4.7947C138.763 3.86262 140.617 3.06066 142.556 2.41061L142.874 3.35874C140.988 3.99096 139.183 4.77161 137.447 5.68061L136.983 4.7947Z" fill="black"/>
<path d="M166.379 2.05704C168.237 2.52227 170.156 3.09692 172.138 3.78784L171.809 4.73214C169.853 4.05048 167.963 3.4846 166.136 3.02711L166.379 2.05704Z" fill="black"/>
<path d="M146.445 1.3423C148.359 0.928986 150.353 0.660229 152.436 0.552933L152.488 1.55161C150.458 1.65616 148.517 1.9179 146.656 2.31979L146.445 1.3423Z" fill="black"/>
<path d="M156.46 0.545654C158.397 0.635361 160.408 0.858715 162.497 1.22692L162.323 2.21175C160.274 1.85058 158.306 1.63222 156.414 1.54459L156.46 0.545654Z" fill="black"/>
</svg>
