<svg width="24" height="24" viewBox="0 0 24 24" fill="none" xmlns="http://www.w3.org/2000/svg">
<path d="M10.9409 13.0009L8.94086 11.0009L7.88086 12.0609L9.88086 14.0609L10.9409 15.1209L12.0009 14.0609L16.1209 9.94086L15.0609 8.88086L10.9409 13.0009Z" fill="#0487FF"/>
<path d="M12 1.25C6.07 1.25 1.25 6.075 1.25 12C1.25 17.925 6.07 22.75 12 22.75C17.93 22.75 22.75 17.925 22.75 12C22.75 6.075 17.93 1.25 12 1.25ZM12 21.5C6.9 21.5 2.5 17.1 2.5 12C2.5 6.9 6.9 2.5 12 2.5C17.1 2.5 21.5 6.9 21.5 12C21.5 17.1 17.1 21.5 12 21.5Z" fill="#0487FF"/>
</svg>
