<?xml version="1.0" encoding="UTF-8"?>
<svg width="71px" height="52px" viewBox="0 0 71 52" version="1.1" xmlns="http://www.w3.org/2000/svg" xmlns:xlink="http://www.w3.org/1999/xlink">
    <!-- Generator: Sketch 54.1 (76490) - https://sketchapp.com -->
    <title>Group 12</title>
    <desc>Created with Sketch.</desc>
    <g id="Final" stroke="none" stroke-width="1" fill="none" fill-rule="evenodd">
        <g id="Contact-Us" transform="translate(-1319.000000, -373.000000)">
            <g id="Group-13" transform="translate(442.000000, 174.000000)">
                <g id="Group-9" transform="translate(1.000000, 158.000000)">
                    <g id="Group-12" transform="translate(876.000000, 41.000000)">
                        <path d="M14.7235652,21.5 L12.3624483,44.3046112 C19.9230678,49.1046648 27.4689841,51.5 35.0069444,51.5 C42.5449048,51.5 50.090821,49.1046648 57.6514406,44.3046111 L55.2903237,21.5 L14.7235652,21.5 Z" id="Rectangle-10" stroke="#2D4152" fill="#FFFFFF"></path>
                        <polygon id="Rectangle-11" fill="#0487FF" points="15.7777778 22 25.6388889 25.4252245 25.6388889 44 15.7777778 40.2837355"></polygon>
                        <path d="M36.0266065,1.56575791 C35.6870758,1.4384556 35.3129242,1.4384556 34.9733935,1.56575791 L1.55511595,14.0954767 C1.14941749,14.2475877 0.829310159,14.5676951 0.677199161,14.9733935 C0.386362431,15.7490903 0.779419164,16.6136865 1.55511595,16.9045233 L34.9733935,29.4342421 C35.3129242,29.5615444 35.6870758,29.5615444 36.0266065,29.4342421 L69.4448841,16.9045233 C69.8505825,16.7524123 70.1706898,16.4323049 70.3228008,16.0266065 C70.6136376,15.2509097 70.2205808,14.3863135 69.4448841,14.0954767 L36.0266065,1.56575791 Z" id="Rectangle-4" stroke="#2D4152" fill="#FFFFFF"></path>
                        <path d="M36.2050409,7.09873937 L54.8660235,14.1283918 C55.8996842,14.5177751 56.4219742,15.6713802 56.0325909,16.7050409 C55.8297007,17.2436351 55.4046177,17.6687181 54.8660235,17.8716082 L36.2050409,24.9012606 C35.7506008,25.0724497 35.2493992,25.0724497 34.7949591,24.9012606 L16.1339765,17.8716082 C15.1003158,17.4822249 14.5780258,16.3286198 14.9674091,15.2949591 C15.1702993,14.7563649 15.5953823,14.3312819 16.1339765,14.1283918 L34.7949591,7.09873937 C35.2493992,6.92755035 35.7506008,6.92755035 36.2050409,7.09873937 Z" id="Rectangle-4-Copy-5" fill="#0487FF"></path>
                        <path d="M64.0972222,19 L64.0972222,29" id="Path-2" stroke="#2D4152" stroke-width="2"></path>
                        <polygon id="Rectangle-12" fill="#47EBC6" points="61.3032407 27 65.9050926 27 67.0555556 39 60.1527778 39"></polygon>
                    </g>
                </g>
            </g>
        </g>
    </g>
</svg>