<?xml version="1.0" encoding="UTF-8"?>
<svg width="56px" height="56px" viewBox="0 0 56 56" version="1.1" xmlns="http://www.w3.org/2000/svg" xmlns:xlink="http://www.w3.org/1999/xlink">
    <!-- Generator: Sketch 54.1 (76490) - https://sketchapp.com -->
    <title>blk-download-icon</title>
    <desc>Created with Sketch.</desc>
    <g id="Page-1" stroke="none" stroke-width="1" fill="none" fill-rule="evenodd">
        <g id="blk-download-icon" fill-rule="nonzero">
            <circle id="Oval" fill="#0487FF" cx="28" cy="28" r="28"></circle>
            <g id="Group-64" transform="translate(16.000000, 15.000000)" fill="#FFFFFF">
                <path d="M24,23.6 L22.6,25 L22.6,23.6 L24,23.6 Z M22.6,12.6129032 L24,12.6129032 L24,25 L0,25 L0,12.6129032 L1.4,12.6129032 L1.4,23.6 L22.6,23.6 L22.6,12.6129032 Z M1.4,25 L0,23.6 L1.4,23.6 L1.4,25 Z M1.4,25 L0,23.6 L1.4,23.6 L1.4,25 Z M22.6,23.6 L22.6,12.6129032 L24,12.6129032 L24,25 L0,25 L0,12.6129032 L1.4,12.6129032 L1.4,23.6 L22.6,23.6 Z M24,23.6 L22.6,25 L22.6,23.6 L24,23.6 Z" id="Rectangle"></path>
                <polygon id="Line-3" points="11.3 0.687096774 12.7 0.687096774 12.7 18.7322581 11.3 18.7322581"></polygon>
                <polygon id="Line-6" points="16.8988927 13.9458227 17.8646611 14.9593766 12 20.54754 6.13533888 14.9593766 7.10110729 13.9458227 12 18.6137503"></polygon>
            </g>
        </g>
    </g>
</svg>