<?xml version="1.0" encoding="UTF-8"?>
<svg width="32px" height="32px" viewBox="0 0 32 32" version="1.1" xmlns="http://www.w3.org/2000/svg" xmlns:xlink="http://www.w3.org/1999/xlink">
    <!-- Generator: Sketch 54.1 (76490) - https://sketchapp.com -->
    <title>menu</title>
    <desc>Created with Sketch.</desc>
    <g id="Page-1" stroke="none" stroke-width="1" fill="none" fill-rule="evenodd">
        <g id="menu" fill="#96A1B9" fill-rule="nonzero">
            <path d="M11.0495,0 L3.7005,0 C1.6600625,0 0,1.6600625 0,3.7005 L0,11.0495 C0,13.0899375 1.6600625,14.75 3.7005,14.75 L11.0495,14.75 C13.0899375,14.75 14.75,13.0899375 14.75,11.0495 L14.75,3.7005 C14.75,1.6600625 13.0899375,0 11.0495,0 Z M12.25,11.0495 C12.25,11.7114375 11.7114375,12.25 11.0495,12.25 L3.7005,12.25 C3.0385625,12.25 2.5,11.7114375 2.5,11.0495 L2.5,3.7005 C2.5,3.0385625 3.0385625,2.5 3.7005,2.5 L11.0495,2.5 C11.7114375,2.5 12.25,3.0385625 12.25,3.7005 L12.25,11.0495 Z" id="Shape"></path>
            <path d="M28.25,0 L21,0 C18.93225,0 17.25,1.68225 17.25,3.75 L17.25,11 C17.25,13.06775 18.93225,14.75 21,14.75 L28.25,14.75 C30.31775,14.75 32,13.06775 32,11 L32,3.75 C32,1.68225 30.31775,0 28.25,0 Z M29.5,11 C29.5,11.68925 28.93925,12.25 28.25,12.25 L21,12.25 C20.31075,12.25 19.75,11.68925 19.75,11 L19.75,3.75 C19.75,3.06075 20.31075,2.5 21,2.5 L28.25,2.5 C28.93925,2.5 29.5,3.06075 29.5,3.75 L29.5,11 Z" id="Shape"></path>
            <path d="M11.0495,17.25 L3.7005,17.25 C1.6600625,17.25 0,18.9100625 0,20.9505 L0,28.2995 C0,30.3399375 1.6600625,32 3.7005,32 L11.0495,32 C13.0899375,32 14.75,30.3399375 14.75,28.2995 L14.75,20.9505 C14.75,18.9100625 13.0899375,17.25 11.0495,17.25 Z M12.25,28.2995 C12.25,28.9614375 11.7114375,29.5 11.0495,29.5 L3.7005,29.5 C3.0385625,29.5 2.5,28.9614375 2.5,28.2995 L2.5,20.9505 C2.5,20.2885625 3.0385625,19.75 3.7005,19.75 L11.0495,19.75 C11.7114375,19.75 12.25,20.2885625 12.25,20.9505 L12.25,28.2995 Z" id="Shape"></path>
            <path d="M28.25,17.25 L21,17.25 C18.93225,17.25 17.25,18.93225 17.25,21 L17.25,28.25 C17.25,30.31775 18.93225,32 21,32 L28.25,32 C30.31775,32 32,30.31775 32,28.25 L32,21 C32,18.93225 30.31775,17.25 28.25,17.25 Z M29.5,28.25 C29.5,28.93925 28.93925,29.5 28.25,29.5 L21,29.5 C20.31075,29.5 19.75,28.93925 19.75,28.25 L19.75,21 C19.75,20.31075 20.31075,19.75 21,19.75 L28.25,19.75 C28.93925,19.75 29.5,20.31075 29.5,21 L29.5,28.25 Z" id="Shape"></path>
        </g>
    </g>
</svg>