<?xml version="1.0" encoding="UTF-8"?>
<svg width="294px" height="402px" viewBox="0 0 294 402" version="1.1" xmlns="http://www.w3.org/2000/svg" xmlns:xlink="http://www.w3.org/1999/xlink">
    <!-- Generator: Sketch 52 (66869) - http://www.bohemiancoding.com/sketch -->
    <title>sort-arrows-couple-pointing-up-and-down</title>
    <desc>Created with Sketch.</desc>
    <g id="Trials" stroke="none" stroke-width="1" fill="none" fill-rule="evenodd">
        <g id="sort-arrows-couple-pointing-up-and-down" fill="#FFFFFF">
            <path d="M19.092,164.452 L274.905,164.452 C279.854,164.452 284.138,162.645 287.753,159.028 C291.366,155.412 293.18,151.13 293.18,146.181 C293.18,141.232 291.367,136.952 287.753,133.331 L159.846,5.424 C156.232,1.812 151.951,0 146.999,0 C142.047,0 137.766,1.812 134.149,5.424 L6.242,133.331 C2.625,136.948 0.818,141.232 0.818,146.181 C0.818,151.129 2.625,155.412 6.242,159.028 C9.863,162.645 14.144,164.452 19.092,164.452 Z" id="Path"></path>
            <path d="M274.905,237.549 L19.092,237.549 C14.14,237.549 9.859,239.357 6.242,242.97 C2.625,246.587 0.818,250.868 0.818,255.817 C0.818,260.766 2.625,265.05 6.242,268.665 L134.149,396.57 C137.77,400.187 142.051,401.998 146.999,401.998 C151.947,401.998 156.232,400.187 159.846,396.57 L287.753,268.664 C291.366,265.05 293.18,260.766 293.18,255.816 C293.18,250.868 291.367,246.587 287.753,242.969 C284.139,239.353 279.854,237.549 274.905,237.549 Z" id="Path"></path>
        </g>
    </g>
</svg>