<?xml version="1.0" encoding="UTF-8"?>
<svg width="160px" height="29px" viewBox="0 0 160 29" version="1.1" xmlns="http://www.w3.org/2000/svg" xmlns:xlink="http://www.w3.org/1999/xlink">
    <!-- Generator: Sketch 58 (84663) - https://sketch.com -->
    <title>Artboard</title>
    <desc>Created with Sketch.</desc>
    <g id="Artboard" stroke="none" stroke-width="1" fill="none" fill-rule="evenodd">
        <g id="country-flag" transform="translate(0.000000, 0.000000)" fill-rule="nonzero">
            <path d="M0,24.4444444 C0,26.8988889 1.99,28.8888889 4.44444444,28.8888889 L35.5555556,28.8888889 C38.01,28.8888889 40,26.8988889 40,24.4444444 L40,20 L0,20 L0,24.4444444 Z" id="Path" fill="#138808"></path>
            <polygon id="Path" fill="#EEEEEE" points="0 8.88888889 40 8.88888889 40 20 0 20"></polygon>
            <path d="M40,8.88888889 L40,4.44444444 C40,1.99 38.01,0 35.5555556,0 L4.44444444,0 C1.99,0 0,1.99 0,4.44444444 L0,8.88888889 L40,8.88888889 Z" id="Path" fill="#FF9933"></path>
            <circle id="Oval" fill="#000080" cx="20" cy="14.4444444" r="4.44444444"></circle>
            <circle id="Oval" fill="#EEEEEE" cx="20" cy="14.4444444" r="3.33333333"></circle>
            <polygon id="Path" fill="#6666B3" points="20 11.1111111 20.1622222 13.6266667 21.2744444 11.3655556 20.4633333 13.7511111 22.3566667 12.0866667 20.6933333 13.9811111 23.0788889 13.1688889 20.8177778 14.2822222 23.3333333 14.4444444 20.8177778 14.6066667 23.0788889 15.7188889 20.6933333 14.9077778 22.3566667 16.8011111 20.4633333 15.1377778 21.2744444 17.5233333 20.1622222 15.2622222 20 17.7777778 19.8377778 15.2622222 18.7244444 17.5233333 19.5366667 15.1377778 17.6422222 16.8011111 19.3066667 14.9077778 16.9211111 15.7188889 19.1822222 14.6066667 16.6666667 14.4444444 19.1822222 14.2822222 16.9211111 13.1688889 19.3066667 13.9811111 17.6422222 12.0866667 19.5366667 13.7511111 18.7244444 11.3655556 19.8377778 13.6266667"></polygon>
            <circle id="Oval" fill="#000080" cx="20" cy="14.4444444" r="1.11111111"></circle>
        </g>
        <g id="flag-2" transform="translate(40.000000, 0.000000)" fill-rule="nonzero">
            <path d="M0,4.51 L0,8.88888889 L6.25333333,8.88888889 L0,4.51 Z M5.18222222,28.8888889 L14.4444444,28.8888889 L14.4444444,22.4033333 L5.18222222,28.8888889 Z M25.5555556,22.4044444 L25.5555556,28.8888889 L34.8166667,28.8888889 L25.5555556,22.4044444 Z M0,20 L0,24.3788889 L6.25555556,20 L0,20 Z M34.8188889,0 L25.5555556,0 L25.5555556,6.48555556 L34.8188889,0 Z M40,24.38 L40,20 L33.7433333,20 L40,24.38 Z M40,8.88888889 L40,4.51 L33.7455556,8.88888889 L40,8.88888889 Z M14.4444444,0 L5.18222222,0 L14.4444444,6.48555556 L14.4444444,0 Z" id="Shape" fill="#00247D"></path>
            <path d="M27.9333333,20 L38.7244444,27.5566667 C39.2477778,27.0244444 39.6222222,26.3544444 39.8244444,25.6133333 L31.8077778,20 L27.9333333,20 Z M14.4444444,20 L12.0655556,20 L1.27555556,27.5555556 C1.85444444,28.1444444 2.59666667,28.5655556 3.42888889,28.7611111 L14.4444444,21.0477778 L14.4444444,20 Z M25.5555556,8.88888889 L27.9344444,8.88888889 L38.7244444,1.33333333 C38.1455556,0.744444444 37.4044444,0.323333333 36.5722222,0.127777778 L25.5555556,7.84111111 L25.5555556,8.88888889 Z M12.0655556,8.88888889 L1.27555556,1.33333333 C0.752222222,1.86666667 0.377777778,2.53555556 0.174444444,3.27666667 L8.19111111,8.88888889 L12.0655556,8.88888889 Z" id="Shape" fill="#CF1B2B"></path>
            <path d="M40,17.7777778 L23.3333333,17.7777778 L23.3333333,28.8888889 L25.5555556,28.8888889 L25.5555556,22.4044444 L34.8166667,28.8888889 L35.5555556,28.8888889 C36.7966667,28.8888889 37.9177778,28.3766667 38.7244444,27.5566667 L27.9333333,20 L31.8077778,20 L39.8244444,25.6133333 C39.9277778,25.2388889 40,24.8511111 40,24.4444444 L40,24.38 L33.7433333,20 L40,20 L40,17.7777778 Z M0,17.7777778 L0,20 L6.25555556,20 L0,24.3788889 L0,24.4444444 C0,25.6566667 0.487777778,26.7533333 1.27555556,27.5555556 L12.0655556,20 L14.4444444,20 L14.4444444,21.0477778 L3.42888889,28.76 C3.75555556,28.8377778 4.09333333,28.8888889 4.44444444,28.8888889 L5.18222222,28.8888889 L14.4444444,22.4033333 L14.4444444,28.8888889 L16.6666667,28.8888889 L16.6666667,17.7777778 L0,17.7777778 Z M40,4.44444444 C40,3.23222222 39.5122222,2.13555556 38.7244444,1.33333333 L27.9344444,8.88888889 L25.5555556,8.88888889 L25.5555556,7.84111111 L36.5722222,0.127777778 C36.2444444,0.0511111111 35.9066667,0 35.5555556,0 L34.8188889,0 L25.5555556,6.48555556 L25.5555556,0 L23.3333333,0 L23.3333333,11.1111111 L40,11.1111111 L40,8.88888889 L33.7455556,8.88888889 L40,4.51 L40,4.44444444 Z M14.4444444,0 L14.4444444,6.48555556 L5.18222222,0 L4.44444444,0 C3.20222222,0 2.08222222,0.512222222 1.27555556,1.33333333 L12.0655556,8.88888889 L8.19111111,8.88888889 L0.174444444,3.27666667 C0.0722222222,3.65111111 0,4.03777778 0,4.44444444 L0,4.51 L6.25333333,8.88888889 L0,8.88888889 L0,11.1111111 L16.6666667,11.1111111 L16.6666667,0 L14.4444444,0 Z" id="Shape" fill="#EEEEEE"></path>
            <polygon id="Path" fill="#CF1B2B" points="23.3333333 11.1111111 23.3333333 0 16.6666667 0 16.6666667 11.1111111 0 11.1111111 0 17.7777778 16.6666667 17.7777778 16.6666667 28.8888889 23.3333333 28.8888889 23.3333333 17.7777778 40 17.7777778 40 11.1111111"></polygon>
        </g>
        <g id="flag-3" transform="translate(80.000000, 0.000000)" fill-rule="nonzero">
            <path d="M4.44444444,0 C1.99,0 0,1.99 0,4.44444444 L0,24.4444444 C0,26.8988889 1.99,28.8888889 4.44444444,28.8888889 L11.1111111,28.8888889 L11.1111111,0 L4.44444444,0 Z M35.5555556,0 L28.8888889,0 L28.8888889,28.8888889 L35.5555556,28.8888889 C38.01,28.8888889 40,26.8988889 40,24.4444444 L40,4.44444444 C40,1.99 38.01,0 35.5555556,0 Z" id="Shape" fill="#D52B1E"></path>
            <polygon id="Path" fill="#EEEEEE" points="11.1111111 0 28.8888889 0 28.8888889 28.8888889 11.1111111 28.8888889"></polygon>
            <path d="M20.6833333,19.0144444 C22.0144444,19.1688889 23.2077778,19.3077778 24.5377778,19.46 L24.1988889,18.3466667 C24.1444444,18.1511111 24.2222222,17.9377778 24.3755556,17.8177778 L28.2411111,14.6688889 L27.4411111,14.2922222 C27.0888889,14.1666667 27.1855556,13.9677778 27.3133333,13.49 L27.9033333,11.3388889 L25.6577778,11.8133333 C25.4388889,11.8466667 25.2933333,11.7077778 25.26,11.5744444 L24.97,10.5622222 L23.1944444,12.5555556 C22.9422222,12.8755556 22.4311111,12.8755556 22.59,12.1377778 L23.3488889,8.1 L22.33,8.62777778 C22.0444444,8.78777778 21.7588889,8.81444444 21.6,8.52888889 L20.1944444,5.9 L20.1944444,5.96555556 L20.1944444,5.9 L18.7888889,8.52888889 C18.6288889,8.81444444 18.3433333,8.78777778 18.0577778,8.62777778 L17.04,8.1 L17.7988889,12.1377778 C17.9588889,12.8755556 17.4466667,12.8755556 17.1944444,12.5555556 L15.4188889,10.5633333 L15.13,11.5755556 C15.0966667,11.7088889 14.95,11.8477778 14.7311111,11.8144444 L12.4855556,11.34 L13.0755556,13.4911111 C13.2011111,13.9688889 13.2988889,14.1677778 12.9466667,14.2933333 L12.1466667,14.67 L16.0122222,17.8188889 C16.1655556,17.9377778 16.2433333,18.1522222 16.1877778,18.3477778 L15.8488889,19.4611111 L19.7044444,19.0155556 C19.8222222,19.0155556 19.9,19.0811111 19.8988889,19.2166667 L19.6611111,23.3322222 L20.7233333,23.3322222 L20.4866667,19.2166667 C20.4888889,19.08 20.5655556,19.0144444 20.6833333,19.0144444 L20.6833333,19.0144444 Z" id="Path" fill="#D52B1E"></path>
        </g>
        <g id="flag-4" transform="translate(120.000000, 0.000000)" fill-rule="nonzero">
            <path d="M35.5555556,0 L20,0 L20,28.8888889 L35.5555556,28.8888889 C38.01,28.8888889 40,26.8988889 40,24.4444444 L40,4.44444444 C40,1.99 38.01,0 35.5555556,0 Z" id="Path" fill="#CF142B"></path>
            <path d="M4.44444444,0 C1.99,0 0,1.99 0,4.44444444 L0,24.4444444 C0,26.8988889 1.99,28.8888889 4.44444444,28.8888889 L20,28.8888889 L20,0 L4.44444444,0 Z" id="Path" fill="#EEEEEE"></path>
            <polygon id="Path" fill="#CF142B" points="1.83777778 5.17333333 11.4944444 5.17333333 11.4944444 8.16 1.83777778 8.16"></polygon>
            <polygon id="Path" fill="#CF142B" points="5.17333333 1.83777778 8.16 1.83777778 8.16 11.4944444 5.17333333 11.4944444"></polygon>
            <g id="Group" transform="translate(3.333333, 3.333333)" fill="#CF142B">
                <circle id="Oval" cx="1.9" cy="4.74555556" r="1.02333333"></circle>
                <circle id="Oval" cx="4.83888889" cy="4.74555556" r="1.02333333"></circle>
                <circle id="Oval" cx="1.9" cy="2.02666667" r="1.02333333"></circle>
                <circle id="Oval" cx="4.83888889" cy="2.02666667" r="1.02333333"></circle>
            </g>
            <g id="Group" transform="translate(4.444444, 4.444444)" fill="#99AAB5">
                <circle id="Oval" cx="0.786666667" cy="3.63444444" r="1"></circle>
                <circle id="Oval" cx="3.72777778" cy="3.63444444" r="1"></circle>
                <circle id="Oval" cx="0.786666667" cy="0.915555556" r="1"></circle>
                <circle id="Oval" cx="3.72777778" cy="0.915555556" r="1"></circle>
            </g>
            <circle id="Oval" fill="#CCD6DD" cx="6.70222222" cy="6.70222222" r="2.01888889"></circle>
            <polygon id="Path" fill="#CCD6DD" points="5.55555556 2.22222222 7.77777778 2.22222222 7.77777778 11.1111111 5.55555556 11.1111111"></polygon>
            <polygon id="Path" fill="#CCD6DD" points="2.22222222 5.55555556 11.1111111 5.55555556 11.1111111 7.77777778 2.22222222 7.77777778"></polygon>
            <circle id="Oval" fill="#B2C0C9" cx="6.70222222" cy="6.75888889" r="1.33777778"></circle>
            <path d="M7.38555556,6.69222222 C7.40222222,6.67333333 7.42111111,6.65666667 7.43888889,6.64 L7.44888889,6.63222222 C7.49555556,6.65555556 7.54111111,6.68444444 7.58555556,6.71222222 C7.67444444,6.76666667 7.95666667,6.63888889 7.82888889,6.56 C7.71888889,6.49222222 7.60888889,6.41333333 7.47333333,6.43666667 C7.37222222,6.45444444 7.28555556,6.50666667 7.20888889,6.57222222 C7.2,6.50333333 7.19222222,6.43555556 7.17666667,6.36777778 C7.19777778,6.34555556 7.21,6.32111111 7.20444444,6.29111111 C7.19222222,6.22666667 7.22777778,6.15555556 7.25,6.09666667 C7.26111111,6.06777778 7.24555556,6.04777778 7.22222222,6.03555556 C7.23222222,6.02222222 7.24,6.00888889 7.24888889,5.99444444 C7.28777778,6.00777778 7.32777778,6.02 7.36888889,6.02888889 C7.43888889,6.04333333 7.53111111,6.01444444 7.58555556,5.97111111 C7.63666667,5.93111111 7.62,5.89 7.56111111,5.87888889 C7.45666667,5.85777778 7.36,5.80444444 7.26222222,5.76222222 C7.19777778,5.73444444 7.10333333,5.76333333 7.04666667,5.79444444 C7.01,5.81444444 6.95333333,5.86777778 7.01222222,5.89666667 C7.00555556,5.90333333 6.99777778,6.14111111 6.99444444,6.14888889 C6.94555556,6.25444444 6.86333333,5.55555556 6.80666667,6.66666667 L6.78666667,6.66666667 C6.76777778,6.66666667 6.63,6.28333333 6.63777778,6.20666667 C6.72,6.19 6.66666667,5.91333333 6.66666667,5.85666667 L6.66666667,5.82444444 C6.66666667,5.80777778 6.79222222,5.79666667 6.78333333,5.78777778 C6.81666667,5.76666667 6.91333333,5.73777778 6.88333333,5.71333333 C6.83666667,5.67444444 6.77222222,5.70111111 6.72111111,5.72111111 C6.70555556,5.71333333 6.70555556,5.70777778 6.69,5.70555556 C6.67888889,5.70333333 6.67555556,5.70555556 6.66444444,5.70555556 C6.72444444,5.68111111 6.77555556,5.64111111 6.76,5.59555556 C6.75111111,5.56777778 6.74444444,5.54555556 6.76,5.51777778 C6.83444444,5.38888889 6.52666667,5.41777778 6.47444444,5.50777778 C6.44222222,5.56444444 6.43555556,5.61555556 6.45555556,5.67777778 C6.46888889,5.72 6.52333333,5.73444444 6.58111111,5.72888889 C6.55,5.74555556 6.52222222,5.77 6.50555556,5.80111111 L6.50222222,5.81111111 C6.45555556,5.81111111 6.40222222,5.82555556 6.37,5.83888889 C6.19111111,5.91555556 6.00222222,5.97111111 5.83444444,6.07111111 C5.80666667,6.08777778 5.73,6.14111111 5.8,6.16333333 C5.84222222,6.17666667 5.89666667,6.17 5.94555556,6.15555556 C5.94777778,6.16333333 5.94777778,6.17 5.95222222,6.17666667 C5.99555556,6.23333333 6.05888889,6.28555556 6.12333333,6.31666667 C6.19111111,6.35 6.28111111,6.33111111 6.34111111,6.29111111 C6.38111111,6.26555556 6.42444444,6.20111111 6.37444444,6.16666667 C6.39333333,6.13888889 6.42222222,6.11888889 6.45,6.09888889 C6.45333333,6.17 6.46222222,6.24 6.48,6.30333333 C6.48444444,6.32111111 6.49444444,6.33444444 6.50555556,6.34555556 C6.46888889,6.35222222 6.43333333,6.36666667 6.40555556,6.38333333 C6.36888889,6.40555556 6.32555556,6.45555556 6.35888889,6.49 C6.28111111,6.50444444 6.20444444,6.52444444 6.13111111,6.55888889 C6.10333333,6.57111111 6.04222222,6.60666667 6.03666667,6.64555556 L5.93,6.65888889 C5.87333333,6.66777778 5.78,6.69444444 5.76,6.75888889 C5.73333333,6.76 5.70222222,6.76555556 5.68,6.77111111 C5.61444444,6.78 5.49111111,6.80888889 5.48555556,6.86666667 C5.47666667,6.96888889 5.52777778,7.05222222 5.57222222,7.13888889 C5.53111111,7.17888889 5.50222222,7.22555556 5.49,7.28555556 C5.46333333,7.41777778 5.77444444,7.37111111 5.79777778,7.25333333 C5.80111111,7.23555556 5.80333333,7.21777778 5.81888889,7.20666667 C5.85777778,7.17888889 5.89666667,7.12444444 5.86222222,7.08666667 C5.87555556,7.07555556 5.88444444,7.06666667 5.88,7.05888889 C5.84111111,6.98333333 5.8,6.91 5.79444444,6.82555556 C5.81111111,6.83222222 5.82888889,6.83555556 5.84666667,6.83666667 C5.86777778,6.95 5.95444444,7.05 6.03666667,7.12555556 C6.05666667,7.14333333 6.09333333,7.14555556 6.13333333,7.14 C6.11666667,7.15333333 6.10222222,7.16777778 6.09555556,7.18666667 C6.05777778,7.28111111 6.04222222,7.37888889 6.03,7.47888889 C6.02555556,7.52 6.05666667,7.56 6.09666667,7.57 C6.22555556,7.6 6.32888889,7.66111111 6.43333333,7.74111111 C6.54111111,7.82333333 6.81,7.67222222 6.67,7.56444444 C6.57222222,7.49 6.46666667,7.42777778 6.35,7.38777778 C6.35777778,7.33111111 6.36777778,7.27444444 6.38888889,7.22111111 C6.39666667,7.20111111 6.39888889,7.18333333 6.39666667,7.16888889 C6.42222222,7.15888889 6.44666667,7.14777778 6.46888889,7.13444444 C6.66666667,7.01444444 6.90888889,6.98888889 7.12111111,6.89222222 C7.11222222,6.92333333 7.13111111,6.95333333 7.17555556,6.96333333 C7.26666667,6.98444444 7.43222222,6.98333333 7.46222222,7.08777778 C7.49222222,7.19333333 7.45666667,7.32 7.52444444,7.41333333 C7.58666667,7.5 7.88333333,7.39555556 7.80888889,7.29222222 C7.78333333,7.25666667 7.78777778,7.18666667 7.78555556,7.14444444 C7.78222222,7.07888889 7.77888889,7.01 7.74777778,6.95 C7.68444444,6.83 7.47888889,6.82111111 7.36333333,6.79333333 C7.32333333,6.78444444 7.27888889,6.73222222 7.23666667,6.74555556 C7.24,6.73777778 7.23333333,6.66666667 7.21333333,6.66666667 L7.20666667,6.66666667 C7.20777778,6.66666667 7.20777778,6.72 7.20888889,6.71888889 C7.27666667,6.71444444 7.34222222,6.74444444 7.38555556,6.69222222 L7.38555556,6.69222222 Z" id="Path" fill="#99AAB5"></path>
        </g>
    </g>
</svg>