<?xml version="1.0" encoding="UTF-8"?>
<svg width="115px" height="100px" viewBox="0 0 115 100" version="1.1" xmlns="http://www.w3.org/2000/svg" xmlns:xlink="http://www.w3.org/1999/xlink">
    <!-- Generator: Sketch 52 (66869) - http://www.bohemiancoding.com/sketch -->
    <title>Group 3 Copy 2</title>
    <desc>Created with Sketch.</desc>
    <defs>
        <polygon id="path-1" points="0 100 59.4987781 0 119 100"></polygon>
    </defs>
    <g id="Final" stroke="none" stroke-width="1" fill="none" fill-rule="evenodd">
        <g id="02_02_Service_Details" transform="translate(-758.000000, -1282.000000)">
            <g id="Group-5" transform="translate(0.000000, 1080.000000)">
                <g id="Group-7" transform="translate(755.000000, 202.000000)">
                    <g id="Group-3-Copy-2">
                        <mask id="mask-2" fill="white">
                            <use xlink:href="#path-1"></use>
                        </mask>
                        <g id="Mask"></g>
                        <g id="Group-3" mask="url(#mask-2)" fill="#D9E4F8">
                            <g transform="translate(-34.700000, -59.904762)" id="Combined-Shape">
                                <path d="M199.71968,195.214286 L88.0239,1.66904762 L90.34678,0.326190476 L202.04494,193.871429 L199.71968,195.214286 Z M190.01166,204.928571 L78.3135,11.3833333 L80.63876,10.0404762 L192.33454,203.585714 L190.01166,204.928571 Z M180.30364,214.640476 L68.60548,21.0952381 L70.92836,19.7547619 L182.62652,213.3 L180.30364,214.640476 Z M170.59324,224.354762 L58.89746,30.8095238 L61.22034,29.4690476 L172.9185,223.014286 L170.59324,224.354762 Z M160.88522,234.069048 L49.18944,40.5238095 L51.51232,39.1833333 L163.21048,232.72619 L160.88522,234.069048 Z M151.1772,243.783333 L39.47904,50.2380952 L41.8043,48.8952381 L153.50008,242.440476 L151.1772,243.783333 Z M141.46918,253.497619 L29.77102,59.952381 L32.0939,58.6095238 L143.79206,252.154762 L141.46918,253.497619 Z M131.75878,263.211905 L20.063,69.6642857 L22.38588,68.3238095 L134.08404,261.869048 L131.75878,263.211905 Z M122.05076,272.92381 L10.3526,79.3785714 L12.67786,78.0380952 L124.37364,271.583333 L122.05076,272.92381 Z M112.34274,282.638095 L0.64458,89.0928571 L2.96984,87.752381 L114.66562,281.297619 L112.34274,282.638095 Z"></path>
                            </g>
                        </g>
                    </g>
                </g>
            </g>
        </g>
    </g>
</svg>