<?xml version="1.0" encoding="UTF-8"?>
<svg width="64px" height="56px" viewBox="0 0 64 56" version="1.1" xmlns="http://www.w3.org/2000/svg" xmlns:xlink="http://www.w3.org/1999/xlink">
    <title>Combined Shape</title>
    <g id="Design" stroke="none" stroke-width="1" fill="none" fill-rule="evenodd">
        <g id="Yudiz_PPC_Design" transform="translate(-1524.000000, -7096.000000)" fill="#0B1C3C" fill-rule="nonzero">
            <g id="Group-29" transform="translate(0.000000, 6616.000000)">
                <g id="Group-28" transform="translate(300.000000, 80.000000)">
                    <g id="Group-27" transform="translate(0.000000, 100.000000)">
                        <g id="Group-4-Copy" transform="translate(672.000000, 0.000000)">
                            <g id="left-quote-copy" transform="translate(584.000000, 328.000000) scale(-1, -1) translate(-584.000000, -328.000000) translate(552.000000, 300.000000)">
                                <path d="M57.1535471,0.30986719 C58.7024237,-0.356160157 60.4578172,0.30986719 61.1806263,1.7956205 L61.1806263,1.7956205 L63.7104581,7.02086121 C64.4327509,8.55784739 63.7620873,10.4534637 62.1615815,11.119491 C58.3926484,12.7082224 55.6046705,14.7575373 53.7460186,17.2674358 C51.4748491,20.3931534 50.2352316,24.5425037 50.1319731,29.7175362 L50.1319731,29.7175362 L59.8898958,29.7175362 C61.5936601,29.7175362 62.987649,31.1003115 62.987649,32.7915086 L62.987649,32.7915086 L62.987649,52.9260276 C62.987649,54.6167124 61.5936601,56 59.8898958,56 L59.8898958,56 L39.5996121,56 C37.8958479,56 36.5018589,54.6167124 36.5018589,52.9260276 L36.5018589,52.9260276 L36.5018589,37.1975357 C36.5018589,29.5126047 37.1725225,23.5178463 38.5148822,19.2147973 C39.8577582,14.8600031 42.3870738,10.9150719 46.0532647,7.43123652 C49.0988724,4.56219564 52.8166926,2.15425061 57.1535471,0.30986719 Z M20.7033174,0.258634317 C22.252194,-0.407905359 24.0075875,0.258634317 24.7303966,1.7438753 L24.7303966,1.7438753 L27.2602284,7.02086121 C27.9830375,8.55784739 27.3118577,10.4534637 25.7113518,11.119491 C21.9424187,12.7082224 19.1544408,14.7575373 17.2957889,17.2669235 C15.0241032,20.392641 13.7850019,24.5419914 13.6817434,29.7170239 L13.6817434,29.7170239 L23.3880369,29.7170239 C25.0918012,29.7170239 26.4857901,31.0997991 26.4857901,32.7909963 L26.4857901,32.7909963 L26.4857901,52.9255153 C26.4857901,54.6162001 25.0918012,55.9994877 23.3880369,55.9994877 L23.3880369,55.9994877 L3.09775323,55.9994877 C1.39398895,55.9994877 -1.0658141e-14,54.6162001 -1.0658141e-14,52.9255153 L-1.0658141e-14,52.9255153 L-1.0658141e-14,37.1970233 C-1.0658141e-14,29.5633253 0.722809087,23.5695915 2.06516882,19.1630521 C3.40752855,14.8082579 5.88573114,10.8633267 9.5514058,7.43123652 C12.5459006,4.51096277 16.3148337,2.10301774 20.7033174,0.258634317 Z" id="Combined-Shape"></path>
                            </g>
                        </g>
                    </g>
                </g>
            </g>
        </g>
    </g>
</svg>