<?xml version="1.0" encoding="UTF-8"?>
<svg width="28px" height="28px" viewBox="0 0 28 28" version="1.1" xmlns="http://www.w3.org/2000/svg" xmlns:xlink="http://www.w3.org/1999/xlink">
    <!-- Generator: Sketch 61 (89581) - https://sketch.com -->
    <title>Home</title>
    <desc>Created with Sketch.</desc>
    <g id="Home" stroke="none" stroke-width="1" fill="none" fill-rule="evenodd">
        <g id="Group-2">
            <rect id="Rectangle" x="0" y="0" width="28" height="28"></rect>
            <g id="Group" transform="translate(2.333333, 4.200000)">
                <path d="M9.16063976,19.4332893 L9.16063976,12.5529475 L13.9469645,12.5529475 L13.9469645,19.4332893 L20.5281611,19.4332893 L20.5281611,10.7580757 L11.9540375,3.04136436 C11.7265046,2.83658476 11.3810997,2.83658476 11.1535668,3.04136436 L2.57944318,10.7580757 L2.57944318,10.7580757 L2.57944318,19.4332893 L9.16063976,19.4332893 Z" id="Path" stroke="#1C2530" stroke-width="0.673750674"></path>
                <path d="M2.12555519e-15,10.357221 L11.1544453,0.357997035 C11.3817097,0.154269523 11.7258946,0.154269523 11.953159,0.357997035 L23.1076043,10.357221 L23.1076043,10.357221" id="Path-8" stroke="#1C2530" stroke-width="0.673750674"></path>
                <path d="M16.729105,1.24956444 L16.729105,4.63931738 L16.729105,4.63931738 L19.1905335,6.84582552 L19.1905335,2.26761371 C19.1905335,2.0864853 19.1084781,1.91510792 18.967377,1.8015386 L17.7025298,0.783489338 C17.4451236,0.576308464 17.0685014,0.617024113 16.8613205,0.874430286 C16.7757563,0.980737202 16.729105,1.11310054 16.729105,1.24956444 Z" id="Path-8" fill="#1C2530"></path>
            </g>
        </g>
    </g>
</svg>