<?xml version="1.0" encoding="UTF-8"?>
<svg width="76px" height="76px" viewBox="0 0 76 76" version="1.1" xmlns="http://www.w3.org/2000/svg" xmlns:xlink="http://www.w3.org/1999/xlink">
    <!-- Generator: Sketch 53 (72520) - https://sketchapp.com -->
    <title>Artboard</title>
    <desc>Created with Sketch.</desc>
    <g id="Artboard" stroke="none" stroke-width="1" fill="none" fill-rule="evenodd">
        <g id="project-inquiry" transform="translate(12.000000, 3.000000)" fill-rule="nonzero">
            <path d="M1,0 C0.44771525,0 0,0.44771525 0,1 L0,67.8923077 C0,68.4445924 0.44771525,68.8923077 1,68.8923077 L50.1692308,68.8923077 C50.7215155,68.8923077 51.1692308,68.4445924 51.1692308,67.8923077 L51.1692308,1 C51.1692308,0.44771525 50.7215155,0 50.1692308,0 L1,0 Z" id="Rectangle-4-Copy-4" stroke="#2D4152" stroke-width="2" fill="#FFFFFF"></path>
            <path d="M45.2547234,63.7080507 C49.102097,50.3276743 51.0780052,29.4153494 51.1661429,1.00309559 C51.1661469,1.00154618 51.1661469,1.00154618 51.1661477,0.99999677 C51.1661495,0.44772008 50.7184422,9.93e-06 50.1661652,8.15e-06 L0.99980008,-0.000164816 L0.99979438,-0.000176799 C0.44750963,-0.000175269 -0.000204376,0.44754122 -0.000202846,0.99982579 L-5.377e-06,67.9513542 C-3.877e-06,68.4927884 0.43091031,68.9358793 0.97213587,68.9509632 C26.927869,69.6744484 41.8452473,67.8133834 45.2547234,63.7080507 Z" id="Rectangle-4-Copy-3" stroke="#2D4152" stroke-width="2" fill="#FFFFFF"></path>
            <g id="Group-10-Copy" transform="translate(7.861538, 7.861538)">
                <path d="M2,0 L33.4461538,0 C34.5507233,-2.02906125e-16 35.4461538,0.8954305 35.4461538,2 L35.4461538,2.43076923 C35.4461538,3.53533873 34.5507233,4.43076923 33.4461538,4.43076923 L2,4.43076923 C0.8954305,4.43076923 1.3527075e-16,3.53533873 0,2.43076923 L0,2 C-1.3527075e-16,0.8954305 0.8954305,2.02906125e-16 2,0 Z" id="Rectangle-8" fill="#2D4152"></path>
                <path d="M2,7.75384615 L23.4769231,7.75384615 C24.5814926,7.75384615 25.4769231,8.64927665 25.4769231,9.75384615 L25.4769231,10.1846154 C25.4769231,11.2891849 24.5814926,12.1846154 23.4769231,12.1846154 L2,12.1846154 C0.8954305,12.1846154 1.3527075e-16,11.2891849 0,10.1846154 L-4.4408921e-16,9.75384615 C-5.7935996e-16,8.64927665 0.8954305,7.75384615 2,7.75384615 Z" id="Rectangle-8-Copy" fill="#2D4152"></path>
                <rect id="Rectangle-9" fill="#50ACFF" x="0" y="26.5846154" width="8.86153846" height="23.2615385"></rect>
                <rect id="Rectangle-9-Copy" fill="#47EBC6" x="13.2923077" y="23.2615385" width="8.86153846" height="26.5846154"></rect>
                <rect id="Rectangle-9-Copy-2" fill="#0487FF" x="26.5846154" y="17.7230769" width="8.86153846" height="32.1230769"></rect>
            </g>
        </g>
    </g>
</svg>