<?xml version="1.0" encoding="UTF-8"?>
<svg width="480px" height="480px" viewBox="0 0 480 480" version="1.1" xmlns="http://www.w3.org/2000/svg" xmlns:xlink="http://www.w3.org/1999/xlink">
    <!-- Generator: Sketch 53 (72520) - https://sketchapp.com -->
    <title>start-up</title>
    <desc>Created with Sketch.</desc>
    <g id="Final" stroke="none" stroke-width="1" fill="none" fill-rule="evenodd">
        <g id="Home" transform="translate(-981.000000, -5843.000000)">
            <g id="Group-48" transform="translate(0.000000, 5736.000000)">
                <g id="Group-36" transform="translate(312.000000, 16.000000)">
                    <g id="Group-35" transform="translate(0.000000, 91.000000)">
                        <g id="Group-38">
                            <g id="start-up" transform="translate(669.000000, 0.000000)">
                                <path d="M70.0708013,307.573242 C67.3535156,312.993164 68.411865,319.544678 72.6928706,323.829346 L76.1315916,327.268067 C86.066895,315.494385 97.6464844,302.717286 111.690674,288.676758 C112.683105,287.684326 113.704834,287.204589 114.700928,286.289062 L92.578125,264.162598 C79.7167969,287.424317 72.2167969,303.317871 70.0708013,307.573242 Z" id="Path" fill="#FFFFFF"></path>
                                <path d="M191.239013,368.225098 C177.161865,382.302246 164.417724,393.903808 152.709961,403.846435 L157.368164,408.504638 C161.689453,412.825928 168.303223,413.865967 173.741455,411.068115 C181.025391,407.314453 192.480469,401.923828 216.796875,388.381348 L193.630371,365.214844 C192.714844,366.214599 192.235107,367.232666 191.239013,368.225098 L191.239013,368.225098 Z" id="Path" fill="#FFFFFF"></path>
                                <path d="M183.035554,296.898498 L183.035569,296.898513 C173.96246,287.825404 146.396972,295.159031 132.283034,309.269118 C93.9639196,347.588233 70.3785189,379.354423 58.1715938,404.5536 C55.7463042,409.557249 56.7565109,415.547376 60.6891016,419.479966 C64.6236343,423.417896 70.6232714,424.425306 75.6362098,421.997164 C100.253672,410.044034 131.863742,386.412523 170.646478,347.632912 C185.368383,332.903703 192.026368,305.892722 183.046525,296.909469 L183.035554,296.898498 Z" id="Path" stroke="#FFFFFF" stroke-width="2" fill="#0487FF"></path>
                                <path d="M70.3520378,244.447035 C88.1154547,212.932166 107.244137,183.742518 127.580488,157.083576 C121.145674,153.696644 108.711857,153.589876 94.959463,157.420092 C77.6563798,162.239219 60.0080573,172.529203 44.6011493,187.936111 L4.82697959,227.710281 C0.647199486,231.890061 -0.205709838,238.357133 2.75426566,243.480975 C5.65778053,248.562981 11.724799,251.097456 17.4436425,249.566348 C40.1373837,243.481178 58.116592,241.567044 70.3520378,244.447035 Z" id="Path" stroke="#FFFFFF" stroke-width="2" fill="#0487FF"></path>
                                <path d="M322.936931,354.481959 C295.577257,375.028694 266.428121,393.804363 235.524046,411.255883 C237.214134,421.358928 236.439138,430.133888 231.430967,464.023168 C230.597366,469.615375 233.462661,475.091445 238.473336,477.596784 L238.477435,477.598845 C243.504871,480.141456 249.596909,479.161959 253.582477,475.172988 L293.360192,435.398935 C307.402817,421.352969 317.092228,404.442308 321.886797,387.437069 C325.74074,373.768017 325.951584,361.192747 322.936931,354.481959 Z" id="Path" stroke="#FFFFFF" stroke-width="2" fill="#0487FF"></path>
                                <path d="M279.188232,141.064453 C262.741699,157.514648 262.741699,184.273682 279.188232,200.723877 C295.638427,217.174072 322.401123,217.174072 338.851318,200.723877 C355.301513,184.273682 355.301513,157.514648 338.851318,141.064453 C322.401123,124.614258 295.638427,124.614258 279.188232,141.064453 Z" id="Path" fill="#FFFFFF"></path>
                                <path d="M364.625701,13.4216409 C367.411982,36.8372999 379.724888,61.1976366 399.221448,80.6941979 C418.9181,100.387365 443.923505,112.744871 467.815161,115.241449 C477.168852,82.1287505 480.790772,48.499229 478.175192,13.7934125 L478.174994,13.79074 C477.706675,7.34627867 472.576615,2.22839657 466.122439,1.74424849 C432.440102,-0.79147992 398.446466,3.17777686 364.625701,13.4216409 Z" id="Path" stroke="#FFFFFF" stroke-width="2" fill="#0487FF"></path>
                                <path d="M335.581165,23.8966706 C251.437509,58.7917291 171.496811,134.237594 108.453612,238.849701 L139.169145,269.565234 C164.656639,259.39006 189.117211,260.377235 204.338776,275.595461 C219.569823,290.829845 220.540627,315.260257 210.354368,340.750457 L242.112844,372.508932 C287.756618,344.939381 329.842394,313.273088 365.429199,278.231245 C407.438912,236.864851 439.023243,192.15439 457.957309,144.412114 C429.300485,139.786338 400.866252,124.941598 377.922044,101.99739 C355.312517,79.3878633 340.552885,51.7967639 335.581165,23.8966706 Z M359.443679,221.319899 C331.642273,249.121305 286.400991,249.121305 258.595872,221.319899 C230.790789,193.514817 230.790789,148.269799 258.595919,120.468383 C286.400991,92.6670252 331.642273,92.6670252 359.443679,120.46843 C387.248754,148.273506 387.248754,193.514825 359.443679,221.319899 Z" id="Shape" stroke="#FFFFFF" stroke-width="2" fill="#0487FF"></path>
                            </g>
                        </g>
                    </g>
                </g>
            </g>
        </g>
    </g>
</svg>