<?xml version="1.0" encoding="UTF-8"?>
<svg width="499px" height="53px" viewBox="0 0 499 53" version="1.1" xmlns="http://www.w3.org/2000/svg" xmlns:xlink="http://www.w3.org/1999/xlink">
    <!-- Generator: Sketch 54.1 (76490) - https://sketchapp.com -->
    <title>THANK YOU ! Copy</title>
    <desc>Created with Sketch.</desc>
    <g id="Final" stroke="none" stroke-width="1" fill="none" fill-rule="evenodd">
        <g id="16_Event_Thank-you-Popup" transform="translate(-974.000000, -382.000000)" fill="#47EBC6">
            <path d="M989.48,394.312 L974,394.312 L974,383.008 L1019.144,383.008 L1019.144,394.312 L1003.736,394.312 L1003.736,433.408 L989.48,433.408 L989.48,394.312 Z M1072.424,383.008 L1072.424,433.408 L1058.168,433.408 L1058.168,413.752 L1038.728,413.752 L1038.728,433.408 L1024.472,433.408 L1024.472,383.008 L1038.728,383.008 L1038.728,401.944 L1058.168,401.944 L1058.168,383.008 L1072.424,383.008 Z M1116.272,423.616 L1094.96,423.616 L1091,433.408 L1076.456,433.408 L1098.704,383.008 L1112.744,383.008 L1135.064,433.408 L1120.232,433.408 L1116.272,423.616 Z M1112.096,413.104 L1105.616,396.976 L1099.136,413.104 L1112.096,413.104 Z M1187.048,383.008 L1187.048,433.408 L1175.312,433.408 L1153.064,406.552 L1153.064,433.408 L1139.096,433.408 L1139.096,383.008 L1150.832,383.008 L1173.08,409.864 L1173.08,383.008 L1187.048,383.008 Z M1216.568,415.12 L1211.24,420.808 L1211.24,433.408 L1197.128,433.408 L1197.128,383.008 L1211.24,383.008 L1211.24,403.96 L1230.752,383.008 L1246.448,383.008 L1225.856,405.328 L1247.528,433.408 L1230.968,433.408 L1216.568,415.12 Z M1299.224,415.336 L1299.224,433.408 L1284.968,433.408 L1284.968,415.12 L1265.744,383.008 L1280.792,383.008 L1292.744,403.024 L1304.696,383.008 L1318.52,383.008 L1299.224,415.336 Z M1345.376,434.416 C1340.04797,434.416 1335.26002,433.288011 1331.012,431.032 C1326.76398,428.775989 1323.42801,425.65602 1321.004,421.672 C1318.57999,417.68798 1317.368,413.200025 1317.368,408.208 C1317.368,403.215975 1318.57999,398.72802 1321.004,394.744 C1323.42801,390.75998 1326.76398,387.640011 1331.012,385.384 C1335.26002,383.127989 1340.04797,382 1345.376,382 C1350.70403,382 1355.49198,383.127989 1359.74,385.384 C1363.98802,387.640011 1367.32399,390.75998 1369.748,394.744 C1372.17201,398.72802 1373.384,403.215975 1373.384,408.208 C1373.384,413.200025 1372.17201,417.68798 1369.748,421.672 C1367.32399,425.65602 1363.98802,428.775989 1359.74,431.032 C1355.49198,433.288011 1350.70403,434.416 1345.376,434.416 Z M1336,405 C1337.65685,405 1339,403.656854 1339,402 C1339,400.343146 1337.65685,399 1336,399 C1334.34315,399 1333,400.343146 1333,402 C1333,403.656854 1334.34315,405 1336,405 Z M1358,405 C1359.65685,405 1361,403.656854 1361,402 C1361,400.343146 1359.65685,399 1358,399 C1356.34315,399 1355,400.343146 1355,402 C1355,403.656854 1356.34315,405 1358,405 Z M1404.128,434.416 C1396.63996,434.416 1390.82002,432.37602 1386.668,428.296 C1382.51598,424.21598 1380.44,418.432037 1380.44,410.944 L1380.44,383.008 L1394.696,383.008 L1394.696,410.512 C1394.696,418.57604 1397.88797,422.608 1404.272,422.608 C1410.60803,422.608 1413.776,418.57604 1413.776,410.512 L1413.776,383.008 L1427.816,383.008 L1427.816,410.944 C1427.816,418.432037 1425.74002,424.21598 1421.588,428.296 C1417.43598,432.37602 1411.61604,434.416 1404.128,434.416 Z M1456.112,383.008 L1472.384,383.008 L1469.648,415.048 L1458.776,415.048 L1456.112,383.008 Z M1464.248,434.056 C1461.84799,434.056 1459.88001,433.324007 1458.344,431.86 C1456.80799,430.395993 1456.04,428.608011 1456.04,426.496 C1456.04,424.335989 1456.80799,422.560007 1458.344,421.168 C1459.88001,419.775993 1461.84799,419.08 1464.248,419.08 C1466.64801,419.08 1468.60399,419.775993 1470.116,421.168 C1471.62801,422.560007 1472.384,424.335989 1472.384,426.496 C1472.384,428.608011 1471.61601,430.395993 1470.08,431.86 C1468.54399,433.324007 1466.60001,434.056 1464.248,434.056 Z M1331.6684,416.09843 C1337.69747,418.756404 1342.14974,420.085391 1345.02522,420.085391 C1347.90071,420.085391 1353.01829,418.756404 1360.37797,416.09843 C1350.1428,426.552206 1340.57295,426.552206 1331.6684,416.09843 Z" id="THANK-YOU-!-Copy"></path>
        </g>
    </g>
</svg>