<?xml version="1.0" encoding="UTF-8"?>
<svg width="185px" height="174px" viewBox="0 0 185 174" version="1.1" xmlns="http://www.w3.org/2000/svg" xmlns:xlink="http://www.w3.org/1999/xlink">
    <!-- Generator: Sketch 54.1 (76490) - https://sketchapp.com -->
    <title>Group 67</title>
    <desc>Created with Sketch.</desc>
    <g id="Final" stroke="none" stroke-width="1" fill="none" fill-rule="evenodd">
        <g id="13_Yudiz-Branding" transform="translate(-911.000000, -403.000000)">
            <g id="Group-52" transform="translate(842.000000, 231.000000)">
                <g id="Group-67" transform="translate(69.055216, 172.026317)">
                    <polygon id="Fill-32" fill="#2880BA" points="134.148731 86.9840426 108.959339 43.4944823 159.333201 43.4944823"></polygon>
                    <polygon id="Fill-33" fill="#3B96D2" points="134.148731 86.9840426 83.9412336 86.9840426 108.959339 43.4944823"></polygon>
                    <polygon id="Fill-34" fill="#C03C2B" points="108.959339 130.486728 83.9412336 86.9840426 134.148731 86.9840426"></polygon>
                    <polygon id="Fill-35" fill="#E54C3B" points="108.959339 130.486728 58.7574197 130.486728 83.9412336 86.9840426"></polygon>
                    <polygon id="Fill-36" fill="#884C9D" points="74.5957443 86.9791206 24.7857844 87.0004495 49.7955219 43.5059671"></polygon>
                    <polygon id="Fill-37" fill="#AC7AB4" points="74.5957443 86.9791206 49.5919133 130.481806 24.7857844 87.0004495"></polygon>
                    <polygon id="Fill-38" fill="#129F84" points="49.8048738 43.5158112 -2.0250468e-13 43.5404214 25.0038311 0.0393763703"></polygon>
                    <polygon id="Fill-39" fill="#26B898" points="49.8048738 43.5158112 24.8053085 87.018497 -2.0250468e-13 43.5404214"></polygon>
                    <polygon id="Fill-40" fill="#F09B21" points="83.7758529 173.971367 58.7574197 130.486728 108.959339 130.486728"></polygon>
                    <polygon id="Fill-41" fill="#EFC31A" points="83.7758529 173.971367 33.5736058 173.971367 58.7574197 130.486728"></polygon>
                    <polygon id="Fill-42" fill="#0C1C3C" points="159.333201 43.4944823 134.148731 -5.43565193e-13 184.501264 -5.43565193e-13"></polygon>
                    <polygon id="Fill-43" fill="#3E4965" points="159.333201 43.4944823 108.959339 43.4944823 134.148731 -5.43565193e-13"></polygon>
                </g>
            </g>
        </g>
    </g>
</svg>